<svg width="24" height="24" viewBox="0 0 24 24" fill="none" xmlns="http://www.w3.org/2000/svg">
<path fill-rule="evenodd" clip-rule="evenodd" d="M6.75 7C6.75 5.067 8.317 3.5 10.25 3.5C12.183 3.5 13.75 5.067 13.75 7C13.75 8.933 12.183 10.5 10.25 10.5C8.317 10.5 6.75 8.933 6.75 7ZM10.25 2C7.48858 2 5.25 4.23858 5.25 7C5.25 9.76142 7.48858 12 10.25 12C13.0114 12 15.25 9.76142 15.25 7C15.25 4.23858 13.0114 2 10.25 2ZM10.1855 14.75C10.8162 14.75 11.4243 14.8293 12 14.9773V13.4389C11.4149 13.3152 10.8075 13.25 10.1855 13.25C5.67877 13.25 1.93555 16.6719 1.93555 21C1.93555 21.4142 2.27133 21.75 2.68555 21.75H17.6855C18.0998 21.75 18.4355 21.4142 18.4355 21C18.4355 20.7467 18.4227 20.4966 18.3977 20.25H16.887H12H3.48408C3.88259 17.1881 6.68927 14.75 10.1855 14.75ZM18.0015 10.75C18.4157 10.75 18.7515 11.0858 18.7515 11.5V13.75H21C21.4142 13.75 21.75 14.0858 21.75 14.5C21.75 14.9142 21.4142 15.25 21 15.25H18.7515V17.5C18.7515 17.9142 18.4157 18.25 18.0015 18.25C17.5873 18.25 17.2515 17.9142 17.2515 17.5V15.25H15C14.5858 15.25 14.25 14.9142 14.25 14.5C14.25 14.0858 14.5858 13.75 15 13.75H17.2515V11.5C17.2515 11.0858 17.5873 10.75 18.0015 10.75Z" fill="black"/>
</svg>
