<svg width="24" height="24" viewBox="0 0 24 24" fill="none" xmlns="http://www.w3.org/2000/svg">
<path fill-rule="evenodd" clip-rule="evenodd" d="M18 12C18 12.4142 17.6642 12.75 17.25 12.75H8.61076L10.9065 14.9596C11.205 15.2469 11.214 15.7217 10.9268 16.0201C10.6396 16.3185 10.1648 16.3276 9.86633 16.0404L6.2299 12.5404C6.08301 12.399 6 12.2039 6 12C6 11.7961 6.08301 11.601 6.2299 11.4596L9.86633 7.95963C10.1648 7.67239 10.6396 7.68147 10.9268 7.9799C11.214 8.27834 11.205 8.75313 10.9065 9.04037L8.61076 11.25L17.25 11.25C17.6642 11.25 18 11.5858 18 12Z" fill="black"/>
</svg>
