<svg width="24" height="24" viewBox="0 0 24 24" fill="none" xmlns="http://www.w3.org/2000/svg">
<path fill-rule="evenodd" clip-rule="evenodd" d="M6 12C6 11.5858 6.33579 11.25 6.75 11.25L15.3892 11.25L13.0935 9.04037C12.795 8.75313 12.786 8.27834 13.0732 7.9799C13.3604 7.68147 13.8352 7.67239 14.1337 7.95963L17.7701 11.4596C17.917 11.601 18 11.7961 18 12C18 12.2039 17.917 12.399 17.7701 12.5404L14.1337 16.0404C13.8352 16.3276 13.3604 16.3185 13.0732 16.0201C12.786 15.7217 12.795 15.2469 13.0935 14.9596L15.3892 12.75L6.75 12.75C6.33579 12.75 6 12.4142 6 12Z" fill="black"/>
</svg>
