<svg width="24" height="24" viewBox="0 0 24 24" fill="none" xmlns="http://www.w3.org/2000/svg">
<path fill-rule="evenodd" clip-rule="evenodd" d="M12 18C11.5858 18 11.25 17.6642 11.25 17.25L11.25 8.61079L9.04037 10.9066C8.75313 11.205 8.27834 11.2141 7.9799 10.9268C7.68147 10.6396 7.67239 10.1648 7.95963 9.86636L11.4596 6.22993C11.601 6.08304 11.7961 6.00003 12 6.00003C12.2039 6.00003 12.399 6.08304 12.5404 6.22993L16.0404 9.86636C16.3276 10.1648 16.3185 10.6396 16.0201 10.9268C15.7217 11.2141 15.2469 11.205 14.9596 10.9066L12.75 8.61079L12.75 17.25C12.75 17.6642 12.4142 18 12 18Z" fill="black"/>
</svg>
