<svg width="24" height="24" viewBox="0 0 24 24" fill="none" xmlns="http://www.w3.org/2000/svg">
<path fill-rule="evenodd" clip-rule="evenodd" d="M11.7752 2.55652C11.7987 2.46816 11.838 2.38621 11.8898 2.31385C11.9534 2.22459 12.0339 2.15292 12.1243 2.10072C12.2143 2.04858 12.316 2.01459 12.4246 2.00375C12.5136 1.99468 12.6047 2.00143 12.6935 2.0252C12.7617 2.04335 12.826 2.07088 12.8851 2.1063L16.3355 4.08976C17.2516 4.55508 18.4604 5.49052 18.9886 6.83896C19.262 7.53692 19.347 8.33489 19.1174 9.19502C18.8901 10.0466 18.3675 10.9112 17.5051 11.7787C17.2131 12.0725 16.7382 12.0739 16.4444 11.7819C16.1507 11.4899 16.1492 11.015 16.4413 10.7213C17.1693 9.98884 17.5248 9.34507 17.6682 8.80812C17.8092 8.2797 17.7576 7.80892 17.5919 7.38605C17.2458 6.50232 16.3805 5.79142 15.6421 5.42002C15.6297 5.41376 15.6174 5.40716 15.6054 5.40022L13.25 4.04624V17.25C13.25 17.3004 13.245 17.3496 13.2356 17.3972C13.2451 17.5135 13.25 17.6312 13.25 17.75C13.25 20.0972 11.3472 22 9 22C6.65279 22 4.75 20.0972 4.75 17.75C4.75 15.4028 6.65279 13.5 9 13.5C10.0488 13.5 11.0088 13.8799 11.75 14.5095V2.76307C11.7487 2.69419 11.757 2.62468 11.7752 2.55652ZM9 15C7.48122 15 6.25 16.2312 6.25 17.75C6.25 19.2688 7.48122 20.5 9 20.5C10.5188 20.5 11.75 19.2688 11.75 17.75C11.75 16.2312 10.5188 15 9 15Z" fill="black"/>
</svg>
