<svg width="24" height="24" viewBox="0 0 24 24" fill="none" xmlns="http://www.w3.org/2000/svg">
<path fill-rule="evenodd" clip-rule="evenodd" d="M7.25 1.99884C5.73122 1.99884 4.5 3.23006 4.5 4.74884V20.2414C4.5 21.574 5.93016 22.4176 7.09653 21.773L11.8795 19.1294C11.9548 19.0879 12.0461 19.0879 12.1214 19.1294L16.9044 21.773C18.0708 22.4176 19.5009 21.574 19.5009 20.2414V4.74884C19.5009 3.23006 18.2697 1.99884 16.7509 1.99884H7.25ZM6 4.74884C6 4.05848 6.55964 3.49884 7.25 3.49884H16.7509C17.4413 3.49884 18.0009 4.05848 18.0009 4.74884V20.2414C18.0009 20.4318 17.7966 20.5523 17.63 20.4602L12.847 17.8166C12.3202 17.5255 11.6807 17.5255 11.1539 17.8166L6.37093 20.4602C6.20431 20.5523 6 20.4318 6 20.2414V4.74884ZM12.75 6.5C12.75 6.08579 12.4142 5.75 12 5.75C11.5858 5.75 11.25 6.08579 11.25 6.5V8.75H9C8.58579 8.75 8.25 9.08579 8.25 9.5C8.25 9.91421 8.58579 10.25 9 10.25H11.25V12.5C11.25 12.9142 11.5858 13.25 12 13.25C12.4142 13.25 12.75 12.9142 12.75 12.5V10.25H15C15.4142 10.25 15.75 9.91421 15.75 9.5C15.75 9.08579 15.4142 8.75 15 8.75H12.75V6.5Z" fill="black"/>
</svg>
