<svg width="24" height="24" viewBox="0 0 24 24" fill="none" xmlns="http://www.w3.org/2000/svg">
<path fill-rule="evenodd" clip-rule="evenodd" d="M2.75 5.75C2.75 3.67893 4.42893 2 6.5 2H15H19.5C20.4665 2 21.25 2.7835 21.25 3.75V9.75V12.25C21.25 13.2165 20.4665 14 19.5 14H14.4491L14.9693 18.6825C15.166 20.4522 13.7806 22 12 22C10.2194 22 8.83403 20.4522 9.03067 18.6825L9.55094 14H4.5C3.5335 14 2.75 13.2165 2.75 12.25V9.75V5.75ZM14.25 6.25V3.5H6.5C5.25736 3.5 4.25 4.50736 4.25 5.75V9H19.75V3.75C19.75 3.61193 19.6381 3.5 19.5 3.5H15.75V6.25C15.75 6.66421 15.4142 7 15 7C14.5858 7 14.25 6.66421 14.25 6.25ZM4.25 12.25V10.5H19.75V12.25C19.75 12.3881 19.6381 12.5 19.5 12.5H4.5C4.36193 12.5 4.25 12.3881 4.25 12.25ZM10.5215 18.8481L11.0046 14.5H12.9954L13.4785 18.8481C13.5764 19.7293 12.8866 20.5 12 20.5C11.1134 20.5 10.4236 19.7293 10.5215 18.8481Z" fill="black"/>
</svg>
