<svg width="24" height="24" viewBox="0 0 24 24" fill="none" xmlns="http://www.w3.org/2000/svg">
<path fill-rule="evenodd" clip-rule="evenodd" d="M2.00305 7.74841C2.00305 6.22963 3.23427 4.99841 4.75305 4.99841H19.2499C20.7687 4.99841 21.9999 6.22963 21.9999 7.74841V14.7333C21.9999 16.252 20.7687 17.4833 19.2499 17.4833H12.2542L7.83113 20.8455C7.60428 21.0179 7.2993 21.0469 7.04402 20.9203C6.78874 20.7937 6.62726 20.5334 6.62726 20.2484V17.4833H4.75305C3.23427 17.4833 2.00305 16.252 2.00305 14.7333V7.74841ZM4.75305 6.49841C4.06269 6.49841 3.50305 7.05806 3.50305 7.74841V14.7333C3.50305 15.4236 4.0627 15.9833 4.75305 15.9833H7.37726C7.79147 15.9833 8.12726 16.319 8.12726 16.7333V18.7362L11.5476 16.1362C11.6781 16.037 11.8375 15.9833 12.0015 15.9833H19.2499C19.9402 15.9833 20.4999 15.4236 20.4999 14.7333V7.74841C20.4999 7.05806 19.9402 6.49841 19.2499 6.49841H4.75305ZM5.24997 9.75C5.24997 9.33579 5.58576 9 5.99997 9H18C18.4142 9 18.75 9.33579 18.75 9.75C18.75 10.1642 18.4142 10.5 18 10.5H5.99997C5.58576 10.5 5.24997 10.1642 5.24997 9.75ZM5.99997 12.25C5.58576 12.25 5.24997 12.5858 5.24997 13C5.24997 13.4142 5.58576 13.75 5.99997 13.75H14C14.4142 13.75 14.75 13.4142 14.75 13C14.75 12.5858 14.4142 12.25 14 12.25H5.99997Z" fill="black"/>
</svg>
