<svg width="24" height="24" viewBox="0 0 24 24" fill="none" xmlns="http://www.w3.org/2000/svg">
<path fill-rule="evenodd" clip-rule="evenodd" d="M22 7.75C22 6.23121 20.7688 5 19.25 5H4.75C3.23122 5 2 6.23122 2 7.75V14.7349C2 16.2536 3.23122 17.4848 4.75 17.4848H11.7473L16.1712 20.8471C16.398 21.0195 16.703 21.0485 16.9583 20.9219C17.2135 20.7953 17.375 20.5349 17.375 20.25V17.4848H19.25C20.7688 17.4848 22 16.2536 22 14.7348V7.75ZM19.25 6.5C19.9404 6.5 20.5 7.05964 20.5 7.75V14.7348C20.5 15.4252 19.9404 15.9848 19.25 15.9848H16.625C16.2108 15.9848 15.875 16.3206 15.875 16.7348V18.7379L12.4538 16.1377C12.3233 16.0385 12.1639 15.9848 12 15.9848H4.75C4.05964 15.9848 3.5 15.4252 3.5 14.7349V7.75C3.5 7.05964 4.05964 6.5 4.75 6.5H19.25ZM5.25 9.75C5.25 9.33579 5.58579 9 6 9H18C18.4142 9 18.75 9.33579 18.75 9.75C18.75 10.1642 18.4142 10.5 18 10.5H6C5.58579 10.5 5.25 10.1642 5.25 9.75ZM10 12.25C9.58579 12.25 9.25 12.5858 9.25 13C9.25 13.4142 9.58579 13.75 10 13.75H18C18.4142 13.75 18.75 13.4142 18.75 13C18.75 12.5858 18.4142 12.25 18 12.25H10Z" fill="black"/>
</svg>
