<svg width="24" height="24" viewBox="0 0 24 24" fill="none" xmlns="http://www.w3.org/2000/svg">
<path fill-rule="evenodd" clip-rule="evenodd" d="M15.4697 10.2803C15.7626 10.5732 16.2374 10.5732 16.5303 10.2803C16.8232 9.98744 16.8232 9.51256 16.5303 9.21967L12.5303 5.21967C12.2374 4.92678 11.7626 4.92678 11.4697 5.21967L7.46967 9.21967C7.17678 9.51256 7.17678 9.98744 7.46967 10.2803C7.76256 10.5732 8.23744 10.5732 8.53033 10.2803L12 6.81066L15.4697 10.2803ZM8.53033 13.7197C8.23744 13.4268 7.76256 13.4268 7.46967 13.7197C7.17678 14.0126 7.17678 14.4874 7.46967 14.7803L11.4697 18.7803C11.7626 19.0732 12.2374 19.0732 12.5303 18.7803L16.5303 14.7803C16.8232 14.4874 16.8232 14.0126 16.5303 13.7197C16.2374 13.4268 15.7626 13.4268 15.4697 13.7197L12 17.1893L8.53033 13.7197Z" fill="black"/>
</svg>
