<svg width="24" height="24" viewBox="0 0 24 24" fill="none" xmlns="http://www.w3.org/2000/svg">
<path fill-rule="evenodd" clip-rule="evenodd" d="M19.071 4.92894C19.3639 5.22184 19.3639 5.69671 19.071 5.9896L13.0606 12L19.071 18.0104C19.3639 18.3033 19.3639 18.7782 19.071 19.0711C18.7781 19.364 18.3033 19.364 18.0104 19.0711L12 13.0607L5.98956 19.0711C5.69667 19.364 5.22179 19.364 4.9289 19.0711C4.63601 18.7782 4.63601 18.3033 4.9289 18.0104L10.9393 12L4.9289 5.9896C4.63601 5.69671 4.636 5.22184 4.9289 4.92894C5.22179 4.63605 5.69667 4.63605 5.98956 4.92894L12 10.9394L18.0104 4.92894C18.3033 4.63605 18.7781 4.63605 19.071 4.92894Z" fill="black"/>
</svg>
