<svg width="24" height="24" viewBox="0 0 24 24" fill="none" xmlns="http://www.w3.org/2000/svg">
<path fill-rule="evenodd" clip-rule="evenodd" d="M8.81805 7.75734C8.52516 7.46445 8.05028 7.46445 7.75739 7.75734C7.4645 8.05024 7.4645 8.52511 7.75739 8.818L10.9394 12L7.75739 15.182C7.4645 15.4749 7.4645 15.9497 7.75739 16.2426C8.05028 16.5355 8.52516 16.5355 8.81805 16.2426L12 13.0606L15.182 16.2426C15.4749 16.5355 15.9498 16.5355 16.2427 16.2426C16.5356 15.9497 16.5356 15.4749 16.2427 15.182L13.0607 12L16.2427 8.818C16.5356 8.52511 16.5356 8.05024 16.2427 7.75734C15.9498 7.46445 15.4749 7.46445 15.182 7.75734L12 10.9393L8.81805 7.75734Z" fill="black"/>
</svg>
