<svg width="24" height="24" viewBox="0 0 24 24" fill="none" xmlns="http://www.w3.org/2000/svg">
<path fill-rule="evenodd" clip-rule="evenodd" d="M7 5.75C7 4.23122 8.23122 3 9.75 3H18.2494C19.7681 3 20.9994 4.23122 20.9994 5.75V14.2494C20.9994 15.7681 19.7681 16.9994 18.2494 16.9994H17V15.4994H18.2494C18.9397 15.4994 19.4994 14.9397 19.4994 14.2494V5.75C19.4994 5.05964 18.9397 4.5 18.2494 4.5H9.75C9.05964 4.5 8.5 5.05964 8.5 5.75V7H14.2494C15.7681 7 16.9994 8.23122 16.9994 9.75V18.2494C16.9994 19.7681 15.7681 20.9994 14.2494 20.9994H5.75C4.23122 20.9994 3 19.7681 3 18.2494V9.75C3 8.23122 4.23122 7 5.75 7H7V5.75ZM4.5 9.75C4.5 9.05964 5.05964 8.5 5.75 8.5H14.2494C14.9397 8.5 15.4994 9.05964 15.4994 9.75V18.2494C15.4994 18.9397 14.9397 19.4994 14.2494 19.4994H5.75C5.05964 19.4994 4.5 18.9397 4.5 18.2494V9.75Z" fill="black"/>
</svg>
