<svg width="24" height="24" viewBox="0 0 24 24" fill="none" xmlns="http://www.w3.org/2000/svg">
<path fill-rule="evenodd" clip-rule="evenodd" d="M8 3.75C8 3.33579 7.66421 3 7.25 3C6.83579 3 6.5 3.33579 6.5 3.75V6.39724H3.75C3.33579 6.39724 3 6.73303 3 7.14724C3 7.56146 3.33579 7.89724 3.75 7.89724H6.5V16.8525C6.5 17.2667 6.83579 17.6025 7.25 17.6025H16.5V20.2497C16.5 20.6639 16.8358 20.9997 17.25 20.9997C17.6642 20.9997 18 20.6639 18 20.2497V17.6025H20.25C20.6642 17.6025 21 17.2667 21 16.8525C21 16.4383 20.6642 16.1025 20.25 16.1025H8V7.14724V3.75ZM11.25 6.39724H10.5V7.89724H11.25H16.5V12.9411V13.6911H18V12.9411V7.14724C18 6.73303 17.6642 6.39724 17.25 6.39724H11.25Z" fill="black"/>
</svg>
