<svg width="24" height="24" viewBox="0 0 24 24" fill="none" xmlns="http://www.w3.org/2000/svg">
<path fill-rule="evenodd" clip-rule="evenodd" d="M9.08632 14.804L9.08214 14.7998L9.07801 14.7957C8.199 13.9212 6.7775 13.9226 5.90022 14.7998C5.02154 15.6785 5.02154 17.1031 5.90022 17.9818C6.7789 18.8605 8.20352 18.8605 9.0822 17.9818C9.95951 17.1045 9.96088 15.683 9.08632 14.804ZM10.6201 14.3225C11.5848 15.7785 11.4257 17.7596 10.1429 19.0425C8.67839 20.5069 6.30403 20.5069 4.83956 19.0425C3.37509 17.578 3.37509 15.2036 4.83956 13.7392C6.12239 12.4564 8.10342 12.2972 9.55944 13.2619L9.93585 12.8855L10.9965 13.9461L10.6201 14.3225ZM13.8249 11.1177L12.7643 10.057L18.9816 3.83966C19.2745 3.54677 19.7494 3.54677 20.0423 3.83966C20.3352 4.13256 20.3352 4.60743 20.0423 4.90032L13.8249 11.1177ZM9.08241 9.20356L9.07845 9.20755C8.19945 10.0823 6.77777 10.081 5.9004 9.20362C5.02172 8.32494 5.02172 6.90032 5.9004 6.02164C6.77908 5.14296 8.2037 5.14296 9.08238 6.02164C9.95973 6.89899 9.96106 8.32062 9.08638 9.19962L9.08241 9.20356ZM4.83974 10.2643C6.1226 11.5471 8.10369 11.7062 9.55972 10.7415L18.9819 20.1637C19.2748 20.4566 19.7497 20.4566 20.0426 20.1637C20.3355 19.8708 20.3355 19.3959 20.0426 19.1031L10.6204 9.68086C11.585 8.22483 11.4259 6.24381 10.143 4.96098C8.67858 3.49652 6.30421 3.49652 4.83974 4.96098C3.37528 6.42545 3.37528 8.79982 4.83974 10.2643Z" fill="black"/>
</svg>
