<svg width="24" height="24" viewBox="0 0 24 24" fill="none" xmlns="http://www.w3.org/2000/svg">
<path fill-rule="evenodd" clip-rule="evenodd" d="M8.43449 2C6.91571 2 5.68449 3.23122 5.68449 4.75V6.22222H5.46222H3.75232C3.33811 6.22222 3.00232 6.55801 3.00232 6.97222C3.00232 7.38644 3.33811 7.72222 3.75232 7.72222H4.71222V21.25C4.71222 21.6642 5.04801 22 5.46222 22H18.5379C18.9521 22 19.2879 21.6642 19.2879 21.25V7.72222H20.2478C20.662 7.72222 20.9978 7.38644 20.9978 6.97222C20.9978 6.55801 20.662 6.22222 20.2478 6.22222H18.5379H18.3156V4.75C18.3156 3.23122 17.0844 2 15.5656 2H8.43449ZM6.21222 20.5V7.72222H6.43449H17.5656H17.7879V20.5H6.21222ZM7.18449 6.22222H16.8156V4.75C16.8156 4.05964 16.256 3.5 15.5656 3.5H8.43449C7.74414 3.5 7.18449 4.05965 7.18449 4.75V6.22222ZM10.7384 11C10.7384 10.5858 10.4026 10.25 9.98843 10.25C9.57421 10.25 9.23843 10.5858 9.23843 11V18C9.23843 18.4142 9.57421 18.75 9.98843 18.75C10.4026 18.75 10.7384 18.4142 10.7384 18V11ZM14.7617 11C14.7617 10.5858 14.4259 10.25 14.0117 10.25C13.5975 10.25 13.2617 10.5858 13.2617 11V18C13.2617 18.4142 13.5975 18.75 14.0117 18.75C14.4259 18.75 14.7617 18.4142 14.7617 18V11Z" fill="black"/>
</svg>
