<svg width="24" height="24" viewBox="0 0 24 24" fill="none" xmlns="http://www.w3.org/2000/svg">
<path fill-rule="evenodd" clip-rule="evenodd" d="M15.75 12C15.75 11.0335 16.5335 10.25 17.5 10.25C18.4665 10.25 19.25 11.0335 19.25 12C19.25 12.9665 18.4665 13.75 17.5 13.75C16.5335 13.75 15.75 12.9665 15.75 12ZM10.25 12C10.25 11.0335 11.0335 10.25 12 10.25C12.9665 10.25 13.75 11.0335 13.75 12C13.75 12.9665 12.9665 13.75 12 13.75C11.0335 13.75 10.25 12.9665 10.25 12ZM6.5 10.25C5.5335 10.25 4.75 11.0335 4.75 12C4.75 12.9665 5.5335 13.75 6.5 13.75C7.4665 13.75 8.25 12.9665 8.25 12C8.25 11.0335 7.4665 10.25 6.5 10.25Z" fill="black"/>
</svg>
