<svg width="24" height="24" viewBox="0 0 24 24" fill="none" xmlns="http://www.w3.org/2000/svg">
<path fill-rule="evenodd" clip-rule="evenodd" d="M12.75 5.5195C12.75 5.10529 12.4142 4.7695 12 4.7695C11.5858 4.7695 11.25 5.10529 11.25 5.5195V13.6882L9.02646 11.4966C8.73146 11.2058 8.2566 11.2093 7.96583 11.5043C7.67506 11.7993 7.6785 12.2741 7.9735 12.5649L11.4735 16.0147C11.7655 16.3025 12.2345 16.3025 12.5265 16.0147L16.0265 12.5649C16.3215 12.2741 16.3249 11.7993 16.0341 11.5043C15.7434 11.2093 15.2685 11.2058 14.9735 11.4966L12.75 13.6882V5.5195ZM3.75 19C3.33579 19 3 19.3358 3 19.75C3 20.1642 3.33579 20.5 3.75 20.5H20.25C20.6642 20.5 21 20.1642 21 19.75C21 19.3358 20.6642 19 20.25 19H3.75Z" fill="black"/>
</svg>
