<svg width="24" height="24" viewBox="0 0 24 24" fill="none" xmlns="http://www.w3.org/2000/svg">
<path fill-rule="evenodd" clip-rule="evenodd" d="M17.7445 3.43008C17.2564 2.94193 16.4649 2.94193 15.9768 3.43008L4.07496 15.3319C3.90046 15.5064 3.78151 15.7286 3.73311 15.9706L3.02686 19.5019C2.85193 20.3766 3.62308 21.1477 4.49773 20.9728L8.029 20.2665C8.27099 20.2181 8.49324 20.0992 8.66774 19.9247L18.7078 9.88461C18.7104 9.88206 18.713 9.87948 18.7156 9.87688C18.7182 9.87428 18.7208 9.87167 18.7234 9.86904L20.5695 8.02287C21.0577 7.53472 21.0577 6.74326 20.5695 6.25511L17.7445 3.43008ZM18.1853 8.28583L19.3321 7.13898L16.8607 4.66752L15.7138 5.81438L18.1853 8.28583ZM14.6531 6.87504L5.18914 16.339L4.57128 19.4284L7.6606 18.8105L17.1246 9.34649L14.6531 6.87504Z" fill="black"/>
</svg>
