<svg width="24" height="24" viewBox="0 0 24 24" fill="none" xmlns="http://www.w3.org/2000/svg">
<path fill-rule="evenodd" clip-rule="evenodd" d="M12.9134 6.39691C12.419 5.8655 11.5774 5.8655 11.083 6.39691L8.77884 8.87358L6.098 6.40372C5.24027 5.61348 3.86337 6.32449 4.0111 7.48137L4.84122 13.982C4.92092 14.606 5.45202 15.0736 6.08115 15.0736H17.9153C18.5444 15.0736 19.0755 14.606 19.1552 13.982L19.9853 7.48137C20.133 6.32449 18.7562 5.61348 17.8984 6.40372L15.2176 8.87358L12.9134 6.39691ZM9.70759 10.0775L11.9982 7.61538L14.2888 10.0775C14.7574 10.5812 15.545 10.6115 16.051 10.1453L18.4106 7.97144L17.6952 13.5736H6.30126L5.58587 7.97144L7.94544 10.1453C8.45142 10.6115 9.23897 10.5812 9.70759 10.0775ZM5.64095 16.5013C5.22674 16.5013 4.89095 16.8371 4.89095 17.2513C4.89095 17.6655 5.22674 18.0013 5.64095 18.0013H18.3555C18.7697 18.0013 19.1055 17.6655 19.1055 17.2513C19.1055 16.8371 18.7697 16.5013 18.3555 16.5013H5.64095Z" fill="black"/>
</svg>
