<svg width="24" height="24" viewBox="0 0 24 24" fill="none" xmlns="http://www.w3.org/2000/svg">
<path fill-rule="evenodd" clip-rule="evenodd" d="M13.3251 9.60684C13.0322 9.89974 13.0322 10.3746 13.3251 10.6675C13.618 10.9604 14.0929 10.9604 14.3858 10.6675L20.4603 4.59299L20.3999 7.75544C20.3919 8.16958 20.7212 8.51172 21.1354 8.51964C21.5495 8.52755 21.8917 8.19825 21.8996 7.78411L21.9956 2.76124C21.9995 2.55739 21.9202 2.36074 21.7761 2.21657C21.6319 2.0724 21.4353 1.99314 21.2314 1.99704L16.2085 2.09306C15.7944 2.10098 15.4651 2.44312 15.473 2.85726C15.4809 3.2714 15.8231 3.6007 16.2372 3.59279L19.3997 3.53233L13.3251 9.60684ZM10.325 14.7282C10.6179 14.4353 10.6179 13.9604 10.325 13.6675C10.0321 13.3747 9.55725 13.3747 9.26436 13.6675L3.5208 19.4111L3.49839 16.3119C3.4954 15.8977 3.15719 15.5643 2.74299 15.5673C2.32879 15.5703 1.99544 15.9085 1.99843 16.3227L2.03379 21.2142C2.03676 21.6242 2.36838 21.9558 2.77835 21.9588L7.66984 21.9941C8.08404 21.9971 8.42225 21.6638 8.42524 21.2496C8.42824 20.8354 8.09489 20.4972 7.68068 20.4942L4.58146 20.4718L10.325 14.7282Z" fill="black"/>
</svg>
