<svg width="24" height="24" viewBox="0 0 24 24" fill="none" xmlns="http://www.w3.org/2000/svg">
<path fill-rule="evenodd" clip-rule="evenodd" d="M21.53 3.53033C21.8229 3.23744 21.8229 2.76256 21.53 2.46967C21.2371 2.17678 20.7622 2.17678 20.4693 2.46967L2.46931 20.4697C2.17641 20.7626 2.17641 21.2374 2.46931 21.5303C2.7622 21.8232 3.23707 21.8232 3.52997 21.5303L21.53 3.53033ZM12.0003 5.25C13.0168 5.25 14.022 5.47425 14.9798 5.83781L13.7959 7.02176C13.1945 6.84741 12.592 6.75 12.0003 6.75C10.3666 6.75 8.6502 7.49259 7.10249 8.54692C5.56396 9.595 4.27141 10.8974 3.5019 11.8905C3.46504 11.938 3.46305 12.0037 3.5093 12.0577C4.15558 12.8132 5.10412 13.7468 6.20294 14.6147L5.1355 15.6822C4.01451 14.7821 3.04796 13.826 2.36946 13.0328C1.86795 12.4465 1.83694 11.5902 2.31623 10.9717C3.17601 9.86216 4.58185 8.44906 6.25799 7.30724C7.92496 6.17167 9.93948 5.25 12.0003 5.25ZM12.0003 17.25C11.4454 17.25 10.8539 17.1378 10.2445 16.9371L9.07854 18.1031C10.0416 18.5 11.0336 18.75 12.0003 18.75C13.8747 18.75 15.8441 17.8101 17.5127 16.6819C19.201 15.5404 20.6916 14.1305 21.6307 13.0328C22.1321 12.4465 22.1632 11.5902 21.6839 10.9717C21.0424 10.1438 20.0969 9.14687 18.9619 8.21974L17.8954 9.28625C18.9912 10.1652 19.9018 11.1208 20.4982 11.8905C20.5351 11.938 20.537 12.0037 20.4908 12.0578C19.6325 13.0612 18.2411 14.3787 16.6725 15.4393C15.0843 16.5131 13.4222 17.25 12.0003 17.25Z" fill="black"/>
</svg>
