<svg width="24" height="24" viewBox="0 0 24 24" fill="none" xmlns="http://www.w3.org/2000/svg">
<path fill-rule="evenodd" clip-rule="evenodd" d="M12.0003 5.25C9.93948 5.25 7.92496 6.17167 6.25799 7.30724C4.58185 8.44906 3.17601 9.86216 2.31623 10.9717C1.83694 11.5902 1.86795 12.4465 2.36946 13.0328C3.30851 14.1306 4.7993 15.5404 6.48768 16.6819C8.1564 17.8101 10.1259 18.75 12.0003 18.75C13.8747 18.75 15.8441 17.8101 17.5127 16.6819C19.201 15.5404 20.6916 14.1305 21.6307 13.0328C22.1321 12.4465 22.1632 11.5902 21.6839 10.9717C20.8241 9.86218 19.4184 8.44908 17.7424 7.30725C16.0755 6.17167 14.0611 5.25 12.0003 5.25ZM3.5019 11.8905C4.27141 10.8974 5.56396 9.595 7.10249 8.54692C8.6502 7.49259 10.3666 6.75 12.0003 6.75C13.6339 6.75 15.3503 7.49259 16.8979 8.54691C18.4363 9.59498 19.7287 10.8974 20.4982 11.8905C20.5351 11.938 20.537 12.0037 20.4908 12.0578C19.6325 13.0612 18.2411 14.3787 16.6725 15.4393C15.0843 16.5131 13.4222 17.25 12.0003 17.25C10.5784 17.25 8.91613 16.5131 7.32782 15.4393C5.75917 14.3787 4.36765 13.0611 3.5093 12.0577C3.46305 12.0037 3.46504 11.938 3.5019 11.8905ZM10.7509 12C10.7509 11.3096 11.3105 10.75 12.0009 10.75C12.6912 10.75 13.2509 11.3096 13.2509 12C13.2509 12.6904 12.6912 13.25 12.0009 13.25C11.3105 13.25 10.7509 12.6904 10.7509 12ZM12.0009 9.25C10.4821 9.25 9.25086 10.4812 9.25086 12C9.25086 13.5188 10.4821 14.75 12.0009 14.75C13.5196 14.75 14.7509 13.5188 14.7509 12C14.7509 10.4812 13.5196 9.25 12.0009 9.25Z" fill="black"/>
</svg>
