<svg width="24" height="24" viewBox="0 0 24 24" fill="none" xmlns="http://www.w3.org/2000/svg">
<path d="M10.8459 12C12.8629 6.64356 15.4869 5.04824 20.2333 4.86653C20.7852 4.8454 21.2333 5.29605 21.2333 5.84833V18.1516C21.2333 18.7039 20.7856 19.1516 20.2333 19.1516H2.76672C5.45977 19.1516 8.69143 17.7213 10.8459 12Z" fill="#D7DDED"/>
<path d="M20.2333 4.86653L20.262 5.61598L20.2333 4.86653ZM10.8459 12L11.5478 12.2643L10.8459 12ZM20.2046 4.11708C17.7593 4.21069 15.7465 4.67142 14.0752 5.88602C12.4074 7.09798 11.1785 8.98852 10.144 11.7357L11.5478 12.2643C12.5303 9.65503 13.6219 8.06969 14.957 7.09945C16.2885 6.13186 17.9609 5.70407 20.262 5.61598L20.2046 4.11708ZM10.144 11.7357C9.10225 14.5021 7.82771 16.1581 6.55494 17.1238C5.28917 18.0842 3.9732 18.4016 2.76672 18.4016V19.9016C4.2533 19.9016 5.89968 19.5039 7.46161 18.3188C9.01653 17.139 10.435 15.2192 11.5478 12.2643L10.144 11.7357ZM20.4833 5.84833V18.1516H21.9833V5.84833H20.4833ZM20.2333 18.4016H2.76672V19.9016H20.2333V18.4016ZM20.4833 18.1516C20.4833 18.2897 20.3714 18.4016 20.2333 18.4016V19.9016C21.1998 19.9016 21.9833 19.1181 21.9833 18.1516H20.4833ZM20.262 5.61598C20.3692 5.61188 20.4833 5.70169 20.4833 5.84833H21.9833C21.9833 4.8904 21.2012 4.07892 20.2046 4.11708L20.262 5.61598Z" fill="#D7DDED"/>
<path fill-rule="evenodd" clip-rule="evenodd" d="M21.9833 4.84833C21.9833 4.43411 21.6475 4.09833 21.2333 4.09833C18.4894 4.09833 16.2556 4.45885 14.4197 5.64938C12.5763 6.84475 11.2493 8.80047 10.144 11.7357C9.10225 14.5021 7.82771 16.1581 6.55494 17.1238C5.28917 18.0842 3.9732 18.4016 2.76672 18.4016C2.35251 18.4016 2.01672 18.7374 2.01672 19.1516C2.01672 19.5658 2.35251 19.9016 2.76672 19.9016C4.2533 19.9016 5.89968 19.5039 7.46161 18.3188C9.01653 17.139 10.435 15.2192 11.5478 12.2643C12.5969 9.47817 13.7706 7.85806 15.2358 6.90793C16.7085 5.95297 18.5912 5.59833 21.2333 5.59833C21.6475 5.59833 21.9833 5.26254 21.9833 4.84833Z" fill="black"/>
</svg>
