<svg width="24" height="24" viewBox="0 0 24 24" fill="none" xmlns="http://www.w3.org/2000/svg">
<path d="M13.1377 11.9017C11.1206 6.54524 8.49661 4.94991 3.75024 4.7682C3.19836 4.74707 2.75019 5.19772 2.75019 5.75V18.0533C2.75019 18.6056 3.1979 19.0533 3.75019 19.0533H21.2168C18.5237 19.0533 15.2921 17.623 13.1377 11.9017Z" fill="#D7DDED"/>
<path d="M3.75024 4.7682L3.72155 5.51765L3.75024 4.7682ZM13.1377 11.9017L12.4358 12.166L13.1377 11.9017ZM3.77893 4.01875C6.22424 4.11236 8.23698 4.5731 9.90836 5.7877C11.5761 6.99965 12.8051 8.89019 13.8395 11.6374L12.4358 12.166C11.4532 9.5567 10.3617 7.97137 9.02655 7.00113C7.69507 6.03353 6.02261 5.60574 3.72155 5.51765L3.77893 4.01875ZM13.8395 11.6374C14.8813 14.4038 16.1558 16.0598 17.4286 17.0255C18.6943 17.9859 20.0103 18.3033 21.2168 18.3033V19.8033C19.7302 19.8033 18.0838 19.4056 16.5219 18.2205C14.967 17.0407 13.5485 15.1209 12.4358 12.166L13.8395 11.6374ZM3.50019 5.75V18.0533H2.00019V5.75H3.50019ZM3.75019 18.3033H21.2168V19.8033H3.75019V18.3033ZM3.50019 18.0533C3.50019 18.1914 3.61211 18.3033 3.75019 18.3033V19.8033C2.78369 19.8033 2.00019 19.0198 2.00019 18.0533H3.50019ZM3.72155 5.51765C3.61437 5.51355 3.50019 5.60337 3.50019 5.75H2.00019C2.00019 4.79207 2.78235 3.9806 3.77893 4.01875L3.72155 5.51765Z" fill="#D7DDED"/>
<path fill-rule="evenodd" clip-rule="evenodd" d="M2.00019 4.75C2.00019 4.33579 2.33597 4 2.75019 4C5.49415 4 7.72791 4.36052 9.56385 5.55106C11.4072 6.74642 12.7343 8.70214 13.8395 11.6373C14.8813 14.4038 16.1558 16.0598 17.4286 17.0255C18.6944 17.9859 20.0103 18.3033 21.2168 18.3033C21.631 18.3033 21.9668 18.6391 21.9668 19.0533C21.9668 19.4675 21.631 19.8033 21.2168 19.8033C19.7302 19.8033 18.0838 19.4056 16.5219 18.2205C14.967 17.0407 13.5485 15.1209 12.4358 12.166C11.3866 9.37984 10.2129 7.75973 8.74773 6.80961C7.27507 5.85464 5.39232 5.5 2.75019 5.5C2.33597 5.5 2.00019 5.16421 2.00019 4.75Z" fill="black"/>
</svg>
