<svg width="128" height="128" viewBox="0 0 128 128" fill="none" xmlns="http://www.w3.org/2000/svg">
<rect width="128" height="128" rx="24" fill="#F8F4F1"/>
<path fill-rule="evenodd" clip-rule="evenodd" d="M32 101.115V98.4918V26.8328C32 25.259 33.2587 24 34.832 24H46.8944C48.4678 24 49.7264 25.259 49.8313 26.8328V101.115C49.8313 102.689 48.5726 103.948 46.9993 103.948H34.832C33.2587 103.948 32 102.689 32 101.115ZM105.423 62.2951C106.157 63.2918 106.157 64.6033 105.423 65.6L78.6761 102.846C78.1517 103.58 77.2601 104 76.3685 104H59.6386C57.331 104 55.9674 101.43 57.331 99.541L81.7179 65.6C82.4522 64.6033 82.4522 63.2918 81.7179 62.2951L57.4359 28.5639C56.1247 26.7279 57.4359 24.1049 59.7434 24.1049H76.4734C77.4174 24.1049 78.2565 24.5246 78.781 25.259L105.423 62.2951Z" fill="#1B1D22"/>
</svg>
