<svg width="24" height="24" viewBox="0 0 24 24" fill="none" xmlns="http://www.w3.org/2000/svg">
<path fill-rule="evenodd" clip-rule="evenodd" d="M2 8.79137C2 5.5474 4.58142 3 7.83867 3C9.39158 3 10.8846 3.60368 12.0021 4.59859C13.1197 3.60368 14.6127 3 16.1656 3C19.4228 3 22.0043 5.5474 22.0043 8.79137C22.0043 10.7708 21.0996 12.5075 19.6677 14.2429C18.2521 15.9586 16.243 17.7635 13.8958 19.8721L13.8567 19.9073L13.8566 19.9073L13.846 19.9169L13.8449 19.9178L13.1184 20.5731C12.4837 21.1455 11.5228 21.1473 10.886 20.5774L10.1604 19.9279L10.1588 19.9265L10.1223 19.8936L10.1222 19.8936L10.0831 19.8583C7.74277 17.7514 5.74003 15.9484 4.32892 14.2348C2.90151 12.5014 2 10.7673 2 8.79137ZM7.83867 4.5C5.39661 4.5 3.5 6.389 3.5 8.79137C3.5 10.2713 4.16332 11.674 5.48684 13.2813C6.81878 14.8987 8.73857 16.6296 11.1258 18.7788M11.1259 18.7788L11.1608 18.8102L11.1624 18.8117L11.8863 19.4597C11.952 19.5184 12.0483 19.5183 12.1137 19.4592L12.8414 18.803L12.8424 18.802L12.8542 18.7915L12.8542 18.7915C15.2484 16.6405 17.1744 14.9079 18.5107 13.2883C19.8386 11.6789 20.5043 10.2739 20.5043 8.79137C20.5043 6.389 18.6077 4.5 16.1656 4.5C14.7802 4.5 13.4408 5.14257 12.5709 6.1546L12.0021 6.8163L11.4334 6.1546C10.5635 5.14257 9.22406 4.5 7.83867 4.5" fill="black"/>
</svg>
