<svg width="24" height="24" viewBox="0 0 24 24" fill="none" xmlns="http://www.w3.org/2000/svg">
<path fill-rule="evenodd" clip-rule="evenodd" d="M3.00049 7.74954C3.00049 7.33533 3.33627 6.99954 3.75049 6.99954L5.20085 6.99954L5.20085 3.74954C5.20085 3.33533 5.53664 2.99954 5.95085 2.99954C6.36507 2.99954 6.70085 3.33533 6.70085 3.74954L6.70085 6.99954L8.15024 6.99954C8.56445 6.99954 8.90024 7.33533 8.90024 7.74954C8.90024 8.16376 8.56445 8.49954 8.15024 8.49954L5.95085 8.49954L3.75049 8.49954C3.33627 8.49954 3.00049 8.16376 3.00049 7.74954ZM5.20085 20.2495C5.20085 20.6638 5.53664 20.9995 5.95085 20.9995C6.36507 20.9995 6.70085 20.6638 6.70085 20.2495L6.70085 10.7495L6.70085 9.99954L5.20085 9.99954L5.20085 10.7495L5.20085 20.2495ZM14.9508 16.2495C14.9508 16.6638 14.6151 16.9995 14.2008 16.9995L12.7505 16.9995L12.7505 20.2495C12.7505 20.6638 12.4147 20.9995 12.0005 20.9995C11.5862 20.9995 11.2505 20.6638 11.2505 20.2495L11.2505 16.9995L9.8011 16.9995C9.38688 16.9995 9.0511 16.6638 9.0511 16.2495C9.0511 15.8353 9.38688 15.4995 9.8011 15.4995L12.0005 15.4995L14.2008 15.4995C14.6151 15.4995 14.9508 15.8353 14.9508 16.2495ZM11.2505 13.2495L11.2505 13.9995L12.7505 13.9995L12.7505 13.2495L12.7505 3.74954C12.7505 3.33533 12.4147 2.99954 12.0005 2.99954C11.5862 2.99954 11.2505 3.33533 11.2505 3.74954L11.2505 13.2495ZM15.8498 9.99954C15.4356 9.99954 15.0998 10.3353 15.0998 10.7495C15.0998 11.1638 15.4356 11.4995 15.8498 11.4995L18.0502 11.4995L20.2496 11.4995C20.6638 11.4995 20.9996 11.1638 20.9996 10.7495C20.9996 10.3353 20.6638 9.99954 20.2496 9.99954L18.8002 9.99954L18.8002 3.74954C18.8002 3.33533 18.4644 2.99954 18.0502 2.99954C17.636 2.99954 17.3002 3.33533 17.3002 3.74954L17.3002 9.99954L15.8498 9.99954ZM18.0502 20.9995C17.636 20.9995 17.3002 20.6638 17.3002 20.2495L17.3002 13.7495L17.3002 12.9995L18.8002 12.9995L18.8002 13.7495L18.8002 20.2495C18.8002 20.6638 18.4644 20.9995 18.0502 20.9995Z" fill="black"/>
</svg>
