<svg width="24" height="24" viewBox="0 0 24 24" fill="none" xmlns="http://www.w3.org/2000/svg">
<path fill-rule="evenodd" clip-rule="evenodd" d="M3.92908 19.0108C3.63618 19.3037 3.63618 19.7785 3.92908 20.0714C4.22197 20.3643 4.69684 20.3643 4.98974 20.0714L10.0986 14.9626L10.0377 18.1484C10.0298 18.5625 10.3591 18.9047 10.7732 18.9126C11.1874 18.9205 11.5295 18.5912 11.5374 18.177L11.6339 13.1308C11.6378 12.927 11.5585 12.7303 11.4144 12.5862C11.2702 12.442 11.0735 12.3627 10.8697 12.3666L5.82348 12.4631C5.40934 12.471 5.08003 12.8132 5.08795 13.2273C5.09586 13.6414 5.43801 13.9707 5.85214 13.9628L9.03794 13.9019L3.92908 19.0108ZM20.0712 4.98951C20.3641 4.69662 20.3641 4.22175 20.0712 3.92885C19.7784 3.63596 19.3035 3.63596 19.0106 3.92885L13.9017 9.03772L13.9626 5.85192C13.9705 5.43779 13.6412 5.09564 13.2271 5.08773C12.813 5.07981 12.4708 5.40911 12.4629 5.82325L12.3664 10.8695C12.3625 11.0733 12.4418 11.27 12.586 11.4141C12.7301 11.5583 12.9268 11.6376 13.1306 11.6337L18.1768 11.5372C18.591 11.5293 18.9203 11.1871 18.9124 10.773C18.9045 10.3589 18.5623 10.0296 18.1482 10.0375L14.9624 10.0984L20.0712 4.98951Z" fill="black"/>
</svg>
