<svg width="24" height="24" viewBox="0 0 24 24" fill="none" xmlns="http://www.w3.org/2000/svg">
<path fill-rule="evenodd" clip-rule="evenodd" d="M4.75 5.5C4.05964 5.5 3.5 6.05964 3.5 6.75V17.2511C3.5 17.9415 4.05964 18.5011 4.75 18.5011H19.2506C19.9409 18.5011 20.5006 17.9415 20.5006 17.2511V8.56264C20.5006 7.87228 19.9409 7.31264 19.2506 7.31264H11.6876C11.03 7.31264 10.4278 6.94391 10.1289 6.35811L10.0389 6.18181C9.82537 5.76338 9.39527 5.5 8.9255 5.5H4.75ZM2 6.75C2 5.23122 3.23122 4 4.75 4H8.9255C9.95898 4 10.9052 4.57944 11.375 5.49998L11.4649 5.67628C11.5077 5.75996 11.5937 5.81264 11.6876 5.81264H19.2506C20.7694 5.81264 22.0006 7.04386 22.0006 8.56264V17.2511C22.0006 18.7699 20.7694 20.0011 19.2506 20.0011H4.75C3.23122 20.0011 2 18.7699 2 17.2511V6.75Z" fill="black"/>
</svg>
