<svg width="24" height="24" viewBox="0 0 24 24" fill="none" xmlns="http://www.w3.org/2000/svg">
<path fill-rule="evenodd" clip-rule="evenodd" d="M4.75001 5.5C4.05966 5.5 3.50001 6.05964 3.50001 6.75V9.5H2.00001V6.75C2.00001 5.23122 3.23123 4 4.75001 4H8.92551C9.95899 4 10.9052 4.57944 11.375 5.49998L11.465 5.67628C11.5077 5.75996 11.5937 5.81264 11.6876 5.81264H19.2506C20.7694 5.81264 22.0006 7.04386 22.0006 8.56264V17.2511C22.0006 18.7699 20.7694 20.0011 19.2506 20.0011H4.75001C3.23123 20.0011 2.00001 18.7699 2.00001 17.2511V14.5H3.50001V17.2511C3.50001 17.9415 4.05966 18.5011 4.75001 18.5011H19.2506C19.941 18.5011 20.5006 17.9415 20.5006 17.2511V8.56264C20.5006 7.87228 19.941 7.31264 19.2506 7.31264H11.6876C11.03 7.31264 10.4278 6.94391 10.1289 6.35811L10.0389 6.18181C9.82538 5.76338 9.39528 5.5 8.92551 5.5H4.75001ZM2.75 11.25C2.33579 11.25 2 11.5858 2 12C2 12.4142 2.33579 12.75 2.75 12.75H9.54508L7.94714 14.4932C7.66725 14.7985 7.68788 15.273 7.99322 15.5529C8.29856 15.8328 8.77298 15.8121 9.05288 15.5068L11.8029 12.5068C12.0657 12.2201 12.0657 11.7799 11.8029 11.4932L9.05288 8.49321C8.77298 8.18787 8.29856 8.16724 7.99322 8.44713C7.68788 8.72703 7.66725 9.20145 7.94715 9.50679L9.54508 11.25H2.75Z" fill="black"/>
</svg>
