<svg width="24" height="24" viewBox="0 0 24 24" fill="none" xmlns="http://www.w3.org/2000/svg">
<path fill-rule="evenodd" clip-rule="evenodd" d="M3.5 12C3.5 7.30558 7.30558 3.5 12 3.5C13.9494 3.5 15.7455 4.15623 17.1795 5.25983L5.25983 17.1795C4.15623 15.7455 3.5 13.9494 3.5 12ZM6.27642 18.2842C7.78687 19.6607 9.79542 20.5 12 20.5C16.6944 20.5 20.5 16.6944 20.5 12C20.5 9.79542 19.6607 7.78687 18.2842 6.27642L6.27642 18.2842ZM12 2C6.47715 2 2 6.47715 2 12C2 17.5228 6.47715 22 12 22C17.5228 22 22 17.5228 22 12C22 6.47715 17.5228 2 12 2Z" fill="black"/>
</svg>
