<svg width="24" height="24" viewBox="0 0 24 24" fill="none" xmlns="http://www.w3.org/2000/svg">
<path fill-rule="evenodd" clip-rule="evenodd" d="M6 3.5H18C19.3807 3.5 20.5 4.61929 20.5 6V18C20.5 19.3807 19.3807 20.5 18 20.5H6C4.61929 20.5 3.5 19.3807 3.5 18V6C3.5 4.61929 4.61929 3.5 6 3.5ZM2 6C2 3.79086 3.79086 2 6 2H18C20.2091 2 22 3.79086 22 6V18C22 20.2091 20.2091 22 18 22H6C3.79086 22 2 20.2091 2 18V6ZM17.2526 11.8761C16.8384 11.8761 16.5026 11.5403 16.5026 11.1261V7.75C16.5026 7.61193 16.3906 7.5 16.2526 7.5L12.8765 7.5C12.4623 7.5 12.1265 7.16421 12.1265 6.75C12.1265 6.33579 12.4623 6 12.8765 6H16.2526C17.2191 6 18.0026 6.7835 18.0026 7.75V11.1261C18.0026 11.5403 17.6668 11.8761 17.2526 11.8761ZM6.75 12.1265C7.16421 12.1265 7.5 12.4623 7.5 12.8765V16.2526C7.5 16.3906 7.61193 16.5026 7.75 16.5026H11.1261C11.5403 16.5026 11.8761 16.8384 11.8761 17.2526C11.8761 17.6668 11.5403 18.0026 11.1261 18.0026H7.75C6.7835 18.0026 6 17.2191 6 16.2526V12.8765C6 12.4623 6.33579 12.1265 6.75 12.1265Z" fill="black"/>
</svg>
