<svg width="24" height="24" viewBox="0 0 24 24" fill="none" xmlns="http://www.w3.org/2000/svg">
<path fill-rule="evenodd" clip-rule="evenodd" d="M6 0C4.89543 0 4 0.89543 4 2V22C4 23.1046 4.89543 24 6 24H18C19.1046 24 20 23.1046 20 22V2C20 0.895431 19.1046 0 18 0H6ZM8.375 9.07065C8.375 8.09564 9.4416 7.49601 10.2746 8.0027L15.2815 11.0483C16.0972 11.5445 16.078 12.735 15.2466 13.2046L10.2397 16.0326C9.40647 16.5033 8.375 15.9013 8.375 14.9442V9.07065Z" fill="black"/>
<path d="M6 3H8" stroke="white" stroke-width="1.5" stroke-linecap="round" stroke-linejoin="round"/>
<path d="M11 3H13" stroke="white" stroke-width="1.5" stroke-linecap="round" stroke-linejoin="round"/>
<path d="M16 3H18" stroke="white" stroke-width="1.5" stroke-linecap="round" stroke-linejoin="round"/>
</svg>
