<svg width="24" height="24" viewBox="0 0 24 24" fill="none" xmlns="http://www.w3.org/2000/svg">
<path fill-rule="evenodd" clip-rule="evenodd" d="M3 5.75C3 5.46527 3.16124 5.20509 3.41622 5.07837C3.6712 4.95165 3.97595 4.98025 4.20291 5.1522L11.2492 10.4905V5.75C11.2492 5.46527 11.4104 5.20509 11.6654 5.07837C11.9204 4.95165 12.2251 4.98025 12.4521 5.1522L20.7012 11.4019C20.8884 11.5436 20.9983 11.7649 20.9983 11.9997C20.9983 12.2345 20.8884 12.4557 20.7012 12.5975L12.4521 18.8471C12.2251 19.0191 11.9204 19.0477 11.6654 18.921C11.4104 18.7943 11.2492 18.5341 11.2492 18.2493V13.5088L4.20291 18.8471C3.97595 19.0191 3.6712 19.0477 3.41622 18.921C3.16124 18.7943 3 18.5341 3 18.2493V5.75ZM4.5 16.7402L10.7572 11.9997L4.5 7.25915V16.7402ZM12.7492 16.7402L19.0063 11.9997L12.7492 7.25915V16.7402Z" fill="black"/>
</svg>
