<svg width="24" height="24" viewBox="0 0 24 24" fill="none" xmlns="http://www.w3.org/2000/svg">
<path fill-rule="evenodd" clip-rule="evenodd" d="M3.75293 3.00293C3.33872 3.00293 3.00293 3.33872 3.00293 3.75293V9.07371C3.00293 9.48792 3.33872 9.82371 3.75293 9.82371C4.16714 9.82371 4.50293 9.48792 4.50293 9.07371V4.50293H9.07371C9.48792 4.50293 9.82371 4.16714 9.82371 3.75293C9.82371 3.33872 9.48792 3.00293 9.07371 3.00293H3.75293ZM20.2499 20.9999C20.6641 20.9999 20.9999 20.6641 20.9999 20.2499V14.9292C20.9999 14.5149 20.6641 14.1792 20.2499 14.1792C19.8357 14.1792 19.4999 14.5149 19.4999 14.9292V19.4999H14.9291C14.5149 19.4999 14.1791 19.8357 14.1791 20.2499C14.1791 20.6641 14.5149 20.9999 14.9291 20.9999H20.2499ZM20.2499 3.00293C20.6641 3.00293 20.9999 3.33872 20.9999 3.75293V9.07371C20.9999 9.48792 20.6641 9.82371 20.2499 9.82371C19.8357 9.82371 19.4999 9.48792 19.4999 9.07371V4.50293L14.9291 4.50293C14.5149 4.50293 14.1791 4.16714 14.1791 3.75293C14.1791 3.33872 14.5149 3.00293 14.9291 3.00293H20.2499ZM3.00293 20.2499C3.00293 20.6641 3.33872 20.9999 3.75293 20.9999H9.07371C9.48792 20.9999 9.82371 20.6641 9.82371 20.2499C9.82371 19.8357 9.48792 19.4999 9.07371 19.4999H4.50293L4.50293 14.9292C4.50293 14.5149 4.16714 14.1792 3.75293 14.1792C3.33872 14.1792 3.00293 14.5149 3.00293 14.9292V20.2499Z" fill="black"/>
</svg>
