<svg width="24" height="24" viewBox="0 0 24 24" fill="none" xmlns="http://www.w3.org/2000/svg">
<path fill-rule="evenodd" clip-rule="evenodd" d="M12 2C12.2023 2 12.3961 2.08179 12.5373 2.22679L21.7873 11.7268C21.9977 11.9428 22.0582 12.2638 21.9409 12.5416C21.8237 12.8194 21.5515 13 21.25 13H20.4583V21.25C20.4583 21.6642 20.1225 22 19.7083 22H14.5694C14.1552 22 13.8194 21.6642 13.8194 21.25V17H10.1805V21.25C10.1805 21.6642 9.84473 22 9.43051 22H4.29163C3.87741 22 3.54163 21.6642 3.54163 21.25V13H2.74996C2.44843 13 2.17622 12.8194 2.05898 12.5416C1.94173 12.2638 2.00225 11.9428 2.21261 11.7268L11.4626 2.22679C11.6038 2.08179 11.7976 2 12 2ZM4.4988 11.529C4.81225 11.6189 5.04163 11.9077 5.04163 12.25V20.5H8.68051V16.25C8.68051 15.8358 9.0163 15.5 9.43051 15.5H14.5694C14.9836 15.5 15.3194 15.8358 15.3194 16.25V20.5H18.9583V12.25C18.9583 11.9077 19.1877 11.6189 19.5011 11.529L12 3.82509L4.4988 11.529Z" fill="black"/>
</svg>
