<svg width="24" height="24" viewBox="0 0 24 24" fill="none" xmlns="http://www.w3.org/2000/svg">
<path d="M22 12C22 9.75381 21.2438 7.57303 19.8532 5.80906C18.4626 4.04509 16.5186 2.80066 14.3345 2.2763C12.1503 1.75194 9.85326 1.97818 7.8134 2.91857C5.77354 3.85896 4.10968 5.45872 3.08994 7.46009C2.07019 9.46146 1.75394 11.7479 2.19215 13.9509C2.63036 16.1539 3.7975 18.1453 5.50552 19.6041C7.21353 21.0628 9.36294 21.9041 11.6074 21.9923C13.8519 22.0805 16.0606 21.4104 17.8778 20.0902L16.7023 18.4721C15.2485 19.5284 13.4815 20.0644 11.6859 19.9938C9.89035 19.9233 8.17083 19.2503 6.80441 18.0832C5.438 16.9162 4.50428 15.3231 4.15372 13.5607C3.80315 11.7983 4.05615 9.96917 4.87195 8.36807C5.68775 6.76698 7.01883 5.48716 8.65072 4.73485C10.2826 3.98254 12.1203 3.80155 13.8676 4.22104C15.6149 4.64053 17.1701 5.63607 18.2825 7.04725C19.395 8.45842 20 10.203 20 12H22Z" fill="black"/>
</svg>
