<svg width="24" height="24" viewBox="0 0 24 24" fill="none" xmlns="http://www.w3.org/2000/svg">
<path fill-rule="evenodd" clip-rule="evenodd" d="M12 2C11.1136 2 10.2358 2.17459 9.41686 2.51381C8.59791 2.85303 7.8538 3.35023 7.227 3.97703C6.60021 4.60383 6.10301 5.34794 5.76379 6.16689C5.42457 6.98584 5.24997 7.86358 5.24997 8.75V9.5456C3.97059 9.78127 3.00134 10.9024 3.00134 12.25V19.25C3.00134 20.7688 4.23256 22 5.75134 22H18.2486C19.7674 22 20.9986 20.7688 20.9986 19.25V12.25C20.9986 10.9024 20.0294 9.78127 18.75 9.5456V8.75C18.75 7.86358 18.5754 6.98583 18.2362 6.16689C17.8969 5.34794 17.3997 4.60382 16.7729 3.97703C16.1461 3.35023 15.402 2.85303 14.5831 2.51381C13.7641 2.17459 12.8864 2 12 2ZM17.25 9.5V8.75C17.25 8.06056 17.1142 7.37787 16.8503 6.74091C16.5865 6.10395 16.1998 5.5252 15.7123 5.03769C15.2248 4.55018 14.646 4.16347 14.0091 3.89963C13.3721 3.6358 12.6894 3.5 12 3.5C11.3105 3.5 10.6278 3.6358 9.99089 3.89963C9.35393 4.16347 8.77517 4.55018 8.28766 5.03769C7.80016 5.5252 7.41344 6.10395 7.14961 6.74091C6.88577 7.37787 6.74997 8.06056 6.74997 8.75V9.5H17.25ZM5.75134 11C5.06099 11 4.50134 11.5596 4.50134 12.25V19.25C4.50134 19.9404 5.06099 20.5 5.75134 20.5H18.2486C18.939 20.5 19.4986 19.9404 19.4986 19.25V12.25C19.4986 11.5596 18.939 11 18.2486 11H5.75134ZM12.75 15.9649C13.1983 15.7134 13.5 15.2433 13.5 14.7048C13.5 13.9013 12.8284 13.25 12 13.25C11.1715 13.25 10.5 13.9013 10.5 14.7048C10.5 15.2433 10.8016 15.7134 11.25 15.9649V17.75C11.25 18.1642 11.5858 18.5 12 18.5C12.4142 18.5 12.75 18.1642 12.75 17.75V15.9649Z" fill="black"/>
</svg>
