<svg width="243" height="48" viewBox="0 0 243 48" fill="none" xmlns="http://www.w3.org/2000/svg">
<path fill-rule="evenodd" clip-rule="evenodd" d="M5.09424 0H19.4767C27.9744 0 34.8253 6.87283 34.8253 15.3706V15.6121C34.6716 23.9561 27.8646 30.6752 19.4767 30.6752H8.34401V46.1775C8.34401 46.8363 7.81702 47.3633 7.15829 47.3633H1.18573C0.52699 47.3633 0 46.8363 0 46.1775V1.18573C0 0.52699 0.52699 0 1.18573 0H5.09424ZM19.4986 22.3093C23.3413 22.3093 26.4593 19.2132 26.4593 15.3486L26.4373 15.2388C26.3715 11.462 23.2974 8.38793 19.4767 8.38793H8.36597V22.3093H19.4986ZM111.59 13.9433H118.595C119.561 13.9433 120.132 15.0412 119.583 15.8097L97.1638 46.9021C96.9443 47.2095 96.571 47.3852 96.1977 47.3852H89.1931C88.227 47.3852 87.6561 46.3093 88.227 45.5188L98.4374 31.312C98.7448 30.8948 98.7448 30.3459 98.4374 29.9287L88.2709 15.8097C87.7219 15.0412 88.2709 13.9433 89.237 13.9433H96.2416C96.6369 13.9433 96.9882 14.1189 97.2078 14.4263L103.532 23.2095C103.729 23.473 104.103 23.473 104.3 23.2095L110.624 14.4263C110.844 14.1189 111.217 13.9433 111.59 13.9433ZM45.1675 0H39.1949C38.5362 0 38.0092 0.52699 38.0092 1.18573V46.1775C38.0092 46.8363 38.5362 47.3633 39.1949 47.3633H45.1675C45.8262 47.3633 46.3532 46.8363 46.3532 46.1775V1.18573C46.3532 0.548948 45.8262 0 45.1675 0ZM79.2462 13.8993H83.8574C84.5161 13.8993 85.0431 14.4263 85.087 15.0851V46.1775C85.087 46.8362 84.56 47.3632 83.9013 47.3632H78.807C78.1483 47.3632 77.6213 46.8362 77.6213 46.1775V45.0796L77.5774 44.9259L76.721 45.4529C74.0641 47.0778 70.9461 48 67.6304 48C58.0129 48 50.1958 40.183 50.1958 30.5654C50.1958 20.9478 58.0348 13.2406 67.6524 13.2406C70.99 13.2406 74.0861 14.1628 76.743 15.7877C76.9845 15.9414 77.5554 16.2708 77.9067 16.4684V16.4465L78.0605 15.0851C78.0605 14.4263 78.5874 13.8993 79.2462 13.8993ZM77.5774 33.6615C77.5774 33.5517 77.5993 33.4419 77.6213 33.3321C77.8848 32.4757 78.0165 31.5974 78.0165 30.6093C78.0165 29.6871 77.8628 28.7649 77.6213 27.9085C77.5993 27.8207 77.5774 27.7328 77.5774 27.645V27.7548C77.4895 27.4913 77.4017 27.2278 77.2919 26.9643C75.8427 23.495 72.3734 20.9917 68.3331 20.9917C63.0193 20.9917 58.6716 25.3175 58.6716 30.6532C58.6716 35.9671 62.9973 40.3147 68.3331 40.3147C72.3734 40.3147 75.8647 37.8335 77.2919 34.2763C77.4017 34.0128 77.4895 33.7493 77.5774 33.4858V33.6615ZM141.98 0H127.598H123.689C123.03 0 122.503 0.52699 122.503 1.18573V46.1775C122.503 46.8363 123.03 47.3633 123.689 47.3633H129.662C130.32 47.3633 130.847 46.8363 130.847 46.1775V30.6752H141.98C150.368 30.6752 157.175 23.9561 157.329 15.6121V15.3706C157.329 6.87283 150.456 0 141.98 0ZM148.941 15.3486C148.941 19.2132 145.823 22.3093 141.98 22.3093H130.847V8.38793H141.98C145.801 8.38793 148.875 11.462 148.941 15.2388V15.3486ZM234.094 13.9433H241.098C242.064 13.9433 242.613 15.0412 242.042 15.8097L219.623 46.9021C219.404 47.2095 219.03 47.3852 218.657 47.3852H211.653C210.686 47.3852 210.115 46.3093 210.686 45.5188L220.941 31.312C221.248 30.8948 221.248 30.3459 220.941 29.9287L210.774 15.8097C210.225 15.0412 210.774 13.9433 211.74 13.9433H218.745C219.14 13.9433 219.491 14.1189 219.711 14.4263L226.035 23.2095C226.233 23.473 226.606 23.473 226.803 23.2095L233.127 14.4263C233.347 14.1189 233.72 13.9433 234.094 13.9433ZM167.671 0H161.698C161.039 0 160.512 0.52699 160.512 1.18573V46.1775C160.512 46.8363 161.039 47.3633 161.698 47.3633H167.671C168.33 47.3633 168.857 46.8363 168.857 46.1775V1.18573C168.857 0.548948 168.33 0 167.671 0ZM201.728 13.8993H206.339C206.997 13.8993 207.524 14.4263 207.568 15.0851V46.1775C207.568 46.8362 207.041 47.3632 206.383 47.3632H201.288C200.63 47.3632 200.103 46.8362 200.103 46.1775V45.0796L200.059 44.9259L199.202 45.4529C196.545 47.0778 193.427 48 190.112 48C180.494 48 172.677 40.183 172.677 30.5654C172.677 20.9478 180.516 13.2406 190.134 13.2406C193.471 13.2406 196.567 14.1628 199.224 15.7877C199.466 15.9414 200.037 16.2708 200.388 16.4684V16.4465L200.542 15.0851C200.542 14.4263 201.069 13.8993 201.728 13.8993ZM200.081 33.6615C200.081 33.5517 200.103 33.4419 200.125 33.3321C200.366 32.4757 200.498 31.5974 200.52 30.6093C200.52 29.6871 200.366 28.7649 200.125 27.9085C200.103 27.8207 200.081 27.7328 200.081 27.645V27.7548C199.993 27.4913 199.905 27.2278 199.795 26.9643C198.346 23.495 194.877 20.9917 190.836 20.9917C185.523 20.9917 181.175 25.3175 181.175 30.6532C181.175 35.9671 185.501 40.3147 190.836 40.3147C194.877 40.3147 198.368 37.8335 199.795 34.2763C199.905 34.0128 199.993 33.7493 200.081 33.4858V33.6615Z" fill="#1B1D22"/>
</svg>
