<svg width="74" height="80" viewBox="0 0 74 80" fill="none" xmlns="http://www.w3.org/2000/svg">
<path fill-rule="evenodd" clip-rule="evenodd" d="M0 77.1148V74.4918V2.83279C0 1.25902 1.25868 0 2.83203 0H14.8944C16.4678 0 17.7264 1.25902 17.8313 2.83279V77.1148C17.8313 78.6885 16.5726 79.9475 14.9993 79.9475H2.83203C1.25868 79.9475 0 78.6885 0 77.1148ZM73.4231 38.2951C74.1573 39.2918 74.1573 40.6033 73.4231 41.6L46.6761 78.8459C46.1517 79.5803 45.2601 80 44.3685 80H27.6386C25.331 80 23.9674 77.4295 25.331 75.541L49.7179 41.6C50.4522 40.6033 50.4522 39.2918 49.7179 38.2951L25.4359 4.56394C24.1247 2.72788 25.4359 0.104924 27.7434 0.104924H44.4734C45.4174 0.104924 46.2565 0.524597 46.781 1.25902L73.4231 38.2951Z" fill="#1B1D22"/>
</svg>
