<svg width="24" height="24" viewBox="0 0 24 24" fill="none" xmlns="http://www.w3.org/2000/svg">
<path fill-rule="evenodd" clip-rule="evenodd" d="M3.5 6.75C3.5 6.05964 4.05964 5.5 4.75 5.5H19.25C19.9404 5.5 20.5 6.05964 20.5 6.75V17.25C20.5 17.9404 19.9404 18.5 19.25 18.5H4.75C4.05964 18.5 3.5 17.9404 3.5 17.25V6.75ZM4.75 4C3.23122 4 2 5.23122 2 6.75V17.25C2 18.7688 3.23122 20 4.75 20H19.25C20.7688 20 22 18.7688 22 17.25V6.75C22 5.23122 20.7688 4 19.25 4H4.75ZM6.46553 7.16197C6.14076 6.90486 5.66907 6.95971 5.41197 7.28447C5.15486 7.60924 5.20971 8.08093 5.53447 8.33803L10.9138 12.5966C11.5503 13.1005 12.4497 13.1005 13.0862 12.5966L18.4655 8.33803C18.7903 8.08093 18.8451 7.60924 18.588 7.28447C18.3309 6.95971 17.8592 6.90486 17.5345 7.16197L12.1552 11.4206C12.0642 11.4926 11.9358 11.4926 11.8448 11.4206L6.46553 7.16197Z" fill="black"/>
</svg>
