<svg width="24" height="24" viewBox="0 0 24 24" fill="none" xmlns="http://www.w3.org/2000/svg">
<path fill-rule="evenodd" clip-rule="evenodd" d="M3.00177 6.75C3.00177 6.33579 3.33756 6 3.75177 6H20.2482C20.6624 6 20.9982 6.33579 20.9982 6.75C20.9982 7.16421 20.6624 7.5 20.2482 7.5H3.75177C3.33756 7.5 3.00177 7.16421 3.00177 6.75ZM3.00177 12.0004C3.00177 11.5862 3.33756 11.2504 3.75177 11.2504H20.2482C20.6624 11.2504 20.9982 11.5862 20.9982 12.0004C20.9982 12.4146 20.6624 12.7504 20.2482 12.7504H3.75177C3.33756 12.7504 3.00177 12.4146 3.00177 12.0004ZM3.00177 17.2509C3.00177 16.8366 3.33756 16.5009 3.75177 16.5009H20.2482C20.6624 16.5009 20.9982 16.8366 20.9982 17.2509C20.9982 17.6651 20.6624 18.0009 20.2482 18.0009H3.75177C3.33756 18.0009 3.00177 17.6651 3.00177 17.2509Z" fill="black"/>
</svg>
