<svg width="24" height="24" viewBox="0 0 24 24" fill="none" xmlns="http://www.w3.org/2000/svg">
<path fill-rule="evenodd" clip-rule="evenodd" d="M8.75 4.75C8.75 3.23122 9.98122 2 11.5 2C13.0188 2 14.25 3.23122 14.25 4.75V12.25C14.25 13.7688 13.0188 15 11.5 15C9.98122 15 8.75 13.7688 8.75 12.25V4.75ZM11.5 3.5C10.8096 3.5 10.25 4.05964 10.25 4.75V12.25C10.25 12.9404 10.8096 13.5 11.5 13.5C12.1904 13.5 12.75 12.9404 12.75 12.25V4.75C12.75 4.05964 12.1904 3.5 11.5 3.5ZM10.75 17.9588V21.25C10.75 21.6642 11.0858 22 11.5 22C11.9142 22 12.25 21.6642 12.25 21.25V17.9588C15.625 17.5857 18.25 14.7244 18.25 11.25C18.25 10.9679 18.0134 10.75 17.7313 10.75H17.2272C16.9587 10.75 16.75 10.9814 16.75 11.25C16.75 14.1495 14.3995 16.5 11.5 16.5C8.60051 16.5 6.25 14.1495 6.25 11.25C6.25 10.9814 6.04135 10.75 5.77276 10.75H5.26868C4.98657 10.75 4.75 10.9679 4.75 11.25C4.75 14.7244 7.37504 17.5857 10.75 17.9588Z" fill="black"/>
</svg>
