<svg width="24" height="24" viewBox="0 0 24 24" fill="none" xmlns="http://www.w3.org/2000/svg">
<path fill-rule="evenodd" clip-rule="evenodd" d="M6.75006 3.5C4.95514 3.5 3.50006 4.95507 3.50006 6.75V14.9115L7.06425 13.1294C7.69983 12.8116 8.46446 12.9097 8.99924 13.3777L12.1151 16.104L16.1119 14.1056C16.7048 13.8091 17.4143 13.8731 17.9445 14.2708L20.5001 16.1875V6.75C20.5001 4.95507 19.045 3.5 17.2501 3.5H6.75006ZM20.4137 17.9976L17.0445 15.4708C16.9688 15.414 16.8674 15.4049 16.7827 15.4472L13.3263 17.1754L16.9983 20.4394C17.0199 20.4587 17.0402 20.4789 17.0591 20.5H17.2501C18.7877 20.5 20.0759 19.4322 20.4137 17.9976ZM14.8086 20.5L11.504 17.5625L8.01148 14.5065C7.93508 14.4397 7.82585 14.4257 7.73506 14.4711L3.50006 16.5885V17.25C3.50006 19.0449 4.95514 20.5 6.75006 20.5H14.8086ZM2.00006 6.75C2.00006 4.12665 4.12671 2 6.75006 2H17.2501C19.8734 2 22.0001 4.12665 22.0001 6.75V17.25C22.0001 19.8734 19.8734 22 17.2501 22H6.75006C4.12671 22 2.00006 19.8734 2.00006 17.25V6.75ZM14.5001 7.75C13.8098 7.75 13.2501 8.30964 13.2501 9C13.2501 9.69036 13.8098 10.25 14.5001 10.25C15.1905 10.25 15.7501 9.69036 15.7501 9C15.7501 8.30964 15.1905 7.75 14.5001 7.75ZM11.7501 9C11.7501 7.48122 12.9813 6.25 14.5001 6.25C16.0189 6.25 17.2501 7.48122 17.2501 9C17.2501 10.5188 16.0189 11.75 14.5001 11.75C12.9813 11.75 11.7501 10.5188 11.7501 9Z" fill="black"/>
</svg>
