<svg width="24" height="24" viewBox="0 0 24 24" fill="none" xmlns="http://www.w3.org/2000/svg">
<path fill-rule="evenodd" clip-rule="evenodd" d="M16.5303 3.96967C16.2374 3.67678 15.7626 3.67678 15.4697 3.96967C15.1768 4.26256 15.1768 4.73744 15.4697 5.03033L17.1893 6.75H10.5C7.04822 6.75 4.25 9.54822 4.25 13C4.25 16.4518 7.04822 19.25 10.5 19.25H14.5C14.9142 19.25 15.25 18.9142 15.25 18.5C15.25 18.0858 14.9142 17.75 14.5 17.75H10.5C7.87665 17.75 5.75 15.6234 5.75 13C5.75 10.3766 7.87665 8.25 10.5 8.25H17.1893L15.4697 9.96967C15.1768 10.2626 15.1768 10.7374 15.4697 11.0303C15.7626 11.3232 16.2374 11.3232 16.5303 11.0303L19.5303 8.03033C19.8232 7.73744 19.8232 7.26256 19.5303 6.96967L16.5303 3.96967Z" fill="black"/>
</svg>
