<svg width="24" height="24" viewBox="0 0 24 24" fill="none" xmlns="http://www.w3.org/2000/svg">
<path fill-rule="evenodd" clip-rule="evenodd" d="M20.9983 18.2493C20.9983 18.5341 20.8371 18.7942 20.5821 18.921C20.3271 19.0477 20.0223 19.0191 19.7954 18.8471L12.7491 13.5088L12.7491 18.2493C12.7491 18.5341 12.5879 18.7942 12.3329 18.921C12.0779 19.0477 11.7732 19.0191 11.5462 18.8471L3.29708 12.5975C3.10993 12.4557 2.99998 12.2344 2.99998 11.9997C2.99998 11.7649 3.10993 11.5436 3.29708 11.4018L11.5462 5.15218C11.7732 4.98024 12.0779 4.95164 12.3329 5.07836C12.5879 5.20508 12.7491 5.46526 12.7491 5.74999L12.7491 10.4905L19.7954 5.15218C20.0223 4.98024 20.3271 4.95164 20.5821 5.07836C20.8371 5.20508 20.9983 5.46526 20.9983 5.74999L20.9983 18.2493ZM19.4983 7.25914L13.2411 11.9997L19.4983 16.7402L19.4983 7.25914ZM11.2491 7.25914L4.99196 11.9997L11.2491 16.7402L11.2491 7.25914Z" fill="black"/>
</svg>
