<svg width="24" height="24" viewBox="0 0 24 24" fill="none" xmlns="http://www.w3.org/2000/svg">
<path fill-rule="evenodd" clip-rule="evenodd" d="M18.0034 5.75001C18.0034 5.46075 17.837 5.19727 17.5759 5.07289C17.3147 4.94851 17.0053 4.98539 16.7807 5.16767L9.07889 11.4187C8.90343 11.5612 8.80153 11.7751 8.80153 12.0011C8.80153 12.2271 8.90343 12.441 9.07889 12.5834L16.7807 18.8345C17.0053 19.0168 17.3147 19.0536 17.5759 18.9293C17.837 18.8049 18.0034 18.5414 18.0034 18.2521V5.75001ZM16.5034 16.6775L10.7417 12.0011L16.5034 7.32467V16.6775ZM7.5 5.75001C7.5 5.33579 7.16421 5.00001 6.75 5.00001C6.33579 5.00001 6 5.33579 6 5.75001V18.2521C6 18.6664 6.33579 19.0021 6.75 19.0021C7.16421 19.0021 7.5 18.6664 7.5 18.2521V5.75001Z" fill="black"/>
</svg>
