<svg width="24" height="24" viewBox="0 0 24 24" fill="none" xmlns="http://www.w3.org/2000/svg">
<path fill-rule="evenodd" clip-rule="evenodd" d="M3.49999 10.75C3.49999 6.74594 6.74593 3.5 10.75 3.5C14.7541 3.5 18 6.74594 18 10.75C18 14.7541 14.7541 18 10.75 18C6.74593 18 3.49999 14.7541 3.49999 10.75ZM10.75 2C5.9175 2 1.99999 5.91751 1.99999 10.75C1.99999 15.5825 5.9175 19.5 10.75 19.5C12.8962 19.5 14.862 18.7273 16.3842 17.4449L16.4697 17.5303L20.7195 21.78C21.0124 22.0729 21.4873 22.0729 21.7802 21.78C22.0731 21.4871 22.0731 21.0123 21.7802 20.7194L17.5303 16.4697L17.4449 16.3842C18.7273 14.862 19.5 12.8962 19.5 10.75C19.5 5.91751 15.5825 2 10.75 2Z" fill="black"/>
</svg>
