<svg width="24" height="24" viewBox="0 0 24 24" fill="none" xmlns="http://www.w3.org/2000/svg">
<path fill-rule="evenodd" clip-rule="evenodd" d="M17.8657 9.19505C17.9654 9.40317 18.0544 9.61734 18.1318 9.83686C18.3717 10.5169 18.9765 10.9364 19.612 11.0061C20.1109 11.0607 20.5 11.4859 20.5 12C20.5 12.5141 20.1109 12.9393 19.612 12.9939C18.9765 13.0636 18.3717 13.4831 18.1318 14.1631C18.0544 14.3827 17.9654 14.5968 17.8657 14.805C17.5538 15.4558 17.6848 16.1807 18.0852 16.6796C18.3994 17.071 18.3739 17.6469 18.0104 18.0104C17.6469 18.3739 17.071 18.3994 16.6796 18.0852C16.1807 17.6848 15.4558 17.5538 14.805 17.8657C14.5968 17.9654 14.3827 18.0544 14.1631 18.1318C13.4831 18.3717 13.0636 18.9765 12.9939 19.612C12.9393 20.1109 12.5141 20.5 12 20.5C11.4859 20.5 11.0607 20.1109 11.0061 19.612C10.9364 18.9765 10.5169 18.3717 9.83685 18.1318C9.61734 18.0544 9.40317 17.9654 9.19505 17.8657C8.54421 17.5538 7.8193 17.6848 7.32041 18.0852C6.929 18.3994 6.35312 18.3739 5.98959 18.0104C5.62607 17.6469 5.60059 17.071 5.91476 16.6796C6.31522 16.1807 6.44623 15.4558 6.13431 14.8049C6.03456 14.5968 5.94562 14.3827 5.86819 14.1631C5.62829 13.4831 5.02354 13.0636 4.38798 12.9939C3.88913 12.9393 3.5 12.5141 3.5 12C3.5 11.4859 3.88913 11.0607 4.38798 11.0061C5.02355 10.9364 5.62829 10.5169 5.86819 9.83685C5.94562 9.61734 6.03456 9.40317 6.13431 9.19505C6.44623 8.54421 6.31522 7.8193 5.91476 7.3204C5.60059 6.929 5.62607 6.35312 5.98959 5.98959C6.35312 5.62607 6.929 5.60059 7.3204 5.91476C7.8193 6.31522 8.54421 6.44623 9.19505 6.13431C9.40317 6.03456 9.61734 5.94563 9.83685 5.86819C10.5169 5.6283 10.9364 5.02355 11.0061 4.38798C11.0607 3.88913 11.4859 3.5 12 3.5C12.5141 3.5 12.9393 3.88913 12.9939 4.38798C13.0636 5.02355 13.4831 5.6283 14.1631 5.86819C14.3827 5.94563 14.5968 6.03456 14.805 6.13431C15.4558 6.44623 16.1807 6.31522 16.6796 5.91476C17.071 5.60059 17.6469 5.62607 18.0104 5.98959C18.3739 6.35312 18.3994 6.929 18.0852 7.32041C17.6848 7.8193 17.5538 8.54421 17.8657 9.19505ZM4.745 15.7406C3.95705 16.7223 4.01836 18.1605 4.92893 19.0711C5.8395 19.9816 7.27774 20.043 8.25937 19.255C8.34078 19.1897 8.45262 19.1732 8.54677 19.2184C8.80319 19.3413 9.06717 19.4509 9.33784 19.5464C9.43622 19.5811 9.50364 19.6717 9.515 19.7754C9.6521 21.0265 10.7124 22 12 22C13.2876 22 14.3479 21.0265 14.485 19.7754C14.4964 19.6717 14.5638 19.5811 14.6622 19.5464C14.9328 19.4509 15.1968 19.3413 15.4532 19.2184C15.5474 19.1732 15.6592 19.1897 15.7406 19.255C16.7223 20.043 18.1605 19.9816 19.0711 19.0711C19.9816 18.1605 20.043 16.7223 19.255 15.7406C19.1897 15.6592 19.1732 15.5474 19.2184 15.4532C19.3413 15.1968 19.4509 14.9328 19.5464 14.6622C19.5811 14.5638 19.6717 14.4964 19.7754 14.485C21.0265 14.3479 22 13.2876 22 12C22 10.7124 21.0265 9.6521 19.7754 9.515C19.6717 9.50364 19.5811 9.43622 19.5464 9.33784C19.4509 9.06717 19.3413 8.80319 19.2184 8.54677C19.1732 8.45262 19.1897 8.34078 19.255 8.25937C20.043 7.27774 19.9816 5.8395 19.0711 4.92893C18.1605 4.01836 16.7223 3.95705 15.7406 4.745C15.6592 4.81035 15.5474 4.82675 15.4532 4.78163C15.1968 4.65874 14.9328 4.54911 14.6622 4.45363C14.5638 4.41892 14.4964 4.32829 14.485 4.22459C14.3479 2.97346 13.2876 2 12 2C10.7124 2 9.6521 2.97346 9.515 4.22459C9.50363 4.32829 9.43622 4.41892 9.33783 4.45363C9.06717 4.54911 8.80319 4.65874 8.54677 4.78163C8.45262 4.82675 8.34078 4.81035 8.25937 4.745C7.27774 3.95705 5.8395 4.01836 4.92893 4.92893C4.01836 5.8395 3.95705 7.27774 4.745 8.25937C4.81035 8.34078 4.82675 8.45262 4.78163 8.54677C4.65874 8.80319 4.54911 9.06717 4.45363 9.33784C4.41892 9.43622 4.32829 9.50364 4.22459 9.515C2.97346 9.6521 2 10.7124 2 12C2 13.2876 2.97346 14.3479 4.22459 14.485C4.32829 14.4964 4.41892 14.5638 4.45363 14.6622C4.54911 14.9328 4.65874 15.1968 4.78163 15.4532C4.82675 15.5474 4.81035 15.6592 4.745 15.7406ZM9.25 12C9.25 10.4812 10.4812 9.25 12 9.25C13.5188 9.25 14.75 10.4812 14.75 12C14.75 13.5188 13.5188 14.75 12 14.75C10.4812 14.75 9.25 13.5188 9.25 12ZM12 7.75C9.65279 7.75 7.75 9.65279 7.75 12C7.75 14.3472 9.65279 16.25 12 16.25C14.3472 16.25 16.25 14.3472 16.25 12C16.25 9.65279 14.3472 7.75 12 7.75Z" fill="black"/>
</svg>
