<svg width="24" height="24" viewBox="0 0 24 24" fill="none" xmlns="http://www.w3.org/2000/svg">
<path fill-rule="evenodd" clip-rule="evenodd" d="M17.6689 3.5C16.6573 3.5 15.8413 4.31685 15.8413 5.31959C15.8413 6.32234 16.6573 7.13919 17.6689 7.13919C18.6804 7.13919 19.4964 6.32234 19.4964 5.31959C19.4964 4.31685 18.6804 3.5 17.6689 3.5ZM14.3413 5.31959C14.3413 3.48404 15.8333 2 17.6689 2C19.5044 2 20.9964 3.48404 20.9964 5.31959C20.9964 7.15514 19.5044 8.63919 17.6689 8.63919C16.7216 8.63919 15.8659 8.24399 15.2595 7.60923L9.50196 11.0013C9.60146 11.3164 9.65513 11.6519 9.65513 12C9.65513 12.3484 9.60139 12.6841 9.50174 12.9994L15.2595 16.3912C15.8659 15.7565 16.7217 15.3613 17.6689 15.3613C19.5044 15.3613 20.9964 16.8454 20.9964 18.6809C20.9964 20.5165 19.5044 22.0005 17.6689 22.0005C15.8333 22.0005 14.3413 20.5165 14.3413 18.6809C14.3413 18.3326 14.395 17.9969 14.4947 17.6816L8.73685 14.2898C8.13043 14.9245 7.27474 15.3196 6.32757 15.3196C4.49199 15.3196 3 13.8356 3 12C3 10.1645 4.49199 8.68042 6.32757 8.68042C7.27486 8.68042 8.13064 9.07567 8.73707 9.7105L14.4945 6.31848C14.395 6.00332 14.3413 5.66778 14.3413 5.31959ZM17.6689 16.8613C16.6573 16.8613 15.8413 17.6782 15.8413 18.6809C15.8413 19.6837 16.6573 20.5005 17.6689 20.5005C18.6804 20.5005 19.4964 19.6837 19.4964 18.6809C19.4964 17.6782 18.6804 16.8613 17.6689 16.8613ZM4.5 12C4.5 10.9973 5.31604 10.1804 6.32757 10.1804C7.33909 10.1804 8.15513 10.9973 8.15513 12C8.15513 13.0028 7.33909 13.8196 6.32757 13.8196C5.31604 13.8196 4.5 13.0028 4.5 12Z" fill="black"/>
</svg>
