<svg width="24" height="24" viewBox="0 0 24 24" fill="none" xmlns="http://www.w3.org/2000/svg">
<path fill-rule="evenodd" clip-rule="evenodd" d="M20.5 14C20.5 15.2503 20.231 16.4342 19.7487 17.5H4.25133C3.76902 16.4342 3.5 15.2503 3.5 14C3.5 9.30558 7.30558 5.5 12 5.5C16.6944 5.5 20.5 9.30558 20.5 14ZM20.0854 19C20.4424 19 20.7758 18.8115 20.9364 18.4927C21.6168 17.1419 22 15.6157 22 14C22 8.47715 17.5228 4 12 4C6.47715 4 2 8.47715 2 14C2 15.6157 2.38317 17.1419 3.0636 18.4927C3.22419 18.8115 3.55765 19 3.91461 19H20.0854ZM12.75 7.75C12.75 7.33579 12.4142 7 12 7C11.5858 7 11.25 7.33579 11.25 7.75V8.75C11.25 9.16421 11.5858 9.5 12 9.5C12.4142 9.5 12.75 9.16421 12.75 8.75V7.75ZM7.05024 9.05024C7.34313 8.75734 7.818 8.75734 8.1109 9.05024L8.818 9.75734C9.1109 10.0502 9.1109 10.5251 8.818 10.818C8.52511 11.1109 8.05024 11.1109 7.75734 10.818L7.05024 10.1109C6.75734 9.818 6.75734 9.34313 7.05024 9.05024ZM16.9498 10.1109C17.2427 9.818 17.2427 9.34313 16.9498 9.05024C16.6569 8.75734 16.182 8.75734 15.8891 9.05024L15.4697 9.46966L15.182 9.75734L12.3885 12.5508C12.2646 12.5177 12.1343 12.5 12 12.5C11.1716 12.5 10.5 13.1716 10.5 14C10.5 14.8284 11.1716 15.5 12 15.5C12.8284 15.5 13.5 14.8284 13.5 14C13.5 13.8656 13.4823 13.7353 13.4492 13.6114L16.2405 10.8201L16.2427 10.818L16.5303 10.5303L16.9498 10.1109ZM19 14C19 14.4142 18.6642 14.75 18.25 14.75H17.25C16.8358 14.75 16.5 14.4142 16.5 14C16.5 13.5858 16.8358 13.25 17.25 13.25H18.25C18.6642 13.25 19 13.5858 19 14ZM6.75 14.75C7.16421 14.75 7.5 14.4142 7.5 14C7.5 13.5858 7.16421 13.25 6.75 13.25H5.75C5.33579 13.25 5 13.5858 5 14C5 14.4142 5.33579 14.75 5.75 14.75H6.75Z" fill="black"/>
</svg>
