<svg width="24" height="24" viewBox="0 0 24 24" fill="none" xmlns="http://www.w3.org/2000/svg">
<path fill-rule="evenodd" clip-rule="evenodd" d="M7.48426 2C5.41319 2 3.73426 3.67893 3.73426 5.75V7.29828L3.28033 6.84435C2.98744 6.55146 2.51256 6.55146 2.21967 6.84435C1.92678 7.13725 1.92678 7.61212 2.21967 7.90501L3.95393 9.63927C4.09458 9.77992 4.28534 9.85894 4.48426 9.85894C4.68317 9.85894 4.87393 9.77992 5.01459 9.63927L6.74884 7.90501C7.04174 7.61212 7.04174 7.13725 6.74884 6.84435C6.45595 6.55146 5.98108 6.55146 5.68818 6.84435L5.23426 7.29828V5.75C5.23426 4.50736 6.24162 3.5 7.48426 3.5H9.10894C9.52315 3.5 9.85894 3.16421 9.85894 2.75C9.85894 2.33579 9.52315 2 9.10894 2H7.48426ZM16.5145 22C18.5856 22 20.2645 20.3211 20.2645 18.25V16.7017L20.7184 17.1556C21.0113 17.4485 21.4862 17.4485 21.7791 17.1556C22.072 16.8628 22.072 16.3879 21.7791 16.095L20.0449 14.3607C19.9042 14.2201 19.7134 14.1411 19.5145 14.1411C19.3156 14.1411 19.1248 14.2201 18.9842 14.3607L17.2499 16.095C16.957 16.3879 16.957 16.8628 17.2499 17.1556C17.5428 17.4485 18.0177 17.4485 18.3106 17.1556L18.7645 16.7017V18.25C18.7645 19.4926 17.7572 20.5 16.5145 20.5H14.8898C14.4756 20.5 14.1398 20.8358 14.1398 21.25C14.1398 21.6642 14.4756 22 14.8898 22H16.5145ZM12.41 4.75C12.41 3.23122 13.6412 2 15.16 2H19.2532C20.772 2 22.0032 3.23122 22.0032 4.75V8.8432C22.0032 10.362 20.772 11.5932 19.2532 11.5932H15.16C13.6412 11.5932 12.41 10.362 12.41 8.84319V4.75ZM15.16 3.5C14.4696 3.5 13.91 4.05964 13.91 4.75V8.84319C13.91 9.53355 14.4696 10.0932 15.16 10.0932H19.2532C19.9436 10.0932 20.5032 9.53355 20.5032 8.8432V4.75C20.5032 4.05964 19.9436 3.5 19.2532 3.5H15.16ZM4.75 12.4055C3.23122 12.4055 2 13.6367 2 15.1555V19.2487C2 20.7675 3.23122 21.9987 4.75 21.9987H8.84319C10.362 21.9987 11.5932 20.7675 11.5932 19.2487V15.1555C11.5932 13.6367 10.362 12.4055 8.8432 12.4055H4.75ZM3.5 15.1555C3.5 14.4652 4.05964 13.9055 4.75 13.9055H8.8432C9.53355 13.9055 10.0932 14.4652 10.0932 15.1555V19.2487C10.0932 19.9391 9.53355 20.4987 8.84319 20.4987H4.75C4.05964 20.4987 3.5 19.9391 3.5 19.2487V15.1555Z" fill="black"/>
</svg>
