<svg width="24" height="24" viewBox="0 0 24 24" fill="none" xmlns="http://www.w3.org/2000/svg">
<path fill-rule="evenodd" clip-rule="evenodd" d="M6.75 2C4.12665 2 2 4.12665 2 6.75V17.2471C2 19.8705 4.12665 21.9971 6.75 21.9971H17.2471C19.8705 21.9971 21.9971 19.8705 21.9971 17.2471V6.75C21.9971 4.12665 19.8705 2 17.2471 2H6.75ZM3.5 6.75C3.5 4.95507 4.95507 3.5 6.75 3.5H17.2471C19.042 3.5 20.4971 4.95507 20.4971 6.75V7.25H8.9157H3.5V6.75ZM3.5 8.75V17.2471C3.5 19.042 4.95507 20.4971 6.75 20.4971H8.1657V8.75H3.5ZM9.6657 20.4971H17.2471C19.042 20.4971 20.4971 19.042 20.4971 17.2471V8.75H9.6657V20.4971Z" fill="black"/>
</svg>
