<svg width="24" height="24" viewBox="0 0 24 24" fill="none" xmlns="http://www.w3.org/2000/svg">
<path fill-rule="evenodd" clip-rule="evenodd" d="M5.94723 3.10125C5.589 2.8933 5.13138 3.01592 4.92511 3.37512C4.71885 3.73433 4.84204 4.1941 5.20027 4.40205L8.04489 6.0533L4.63609 11.9896C4.29231 12.5882 4.49763 13.3545 5.09469 13.7011L10.7173 16.965C11.3144 17.3115 12.0771 17.1072 12.4208 16.5085L15.9541 10.3554C16.2979 9.75675 16.0926 8.99047 15.4955 8.64389L9.44049 5.12903L5.94723 3.10125ZM6.09072 12.4686L9.34217 6.80635L14.5324 9.81918L14.4907 9.89174C14.4422 9.89192 14.392 9.89935 14.341 9.91513L6.12466 12.4568C6.11307 12.4604 6.10176 12.4644 6.09072 12.4686ZM17.7048 15.1816C18.7554 15.7907 20.0988 15.4292 20.7054 14.3742C21.312 13.3191 20.952 11.97 19.9014 11.3608L18.4316 10.5087C18.1927 10.3702 17.8875 10.4519 17.7499 10.6913L16.9008 12.1683C16.2942 13.2233 16.6542 14.5725 17.7048 15.1816ZM5.25005 19.5009C4.83583 19.5009 4.50005 19.8367 4.50005 20.2509C4.50005 20.6651 4.83583 21.0009 5.25005 21.0009H18.75C19.1643 21.0009 19.5 20.6651 19.5 20.2509C19.5 19.8367 19.1643 19.5009 18.75 19.5009H5.25005Z" fill="black"/>
</svg>
