<svg width="24" height="24" viewBox="0 0 24 24" fill="none" xmlns="http://www.w3.org/2000/svg">
<path fill-rule="evenodd" clip-rule="evenodd" d="M18.9343 5.75C18.9343 6.16421 18.5986 6.5 18.1843 6.5L5.81202 6.5C5.39781 6.5 5.06202 6.16421 5.06202 5.75C5.06202 5.33579 5.39781 5 5.81202 5H18.1843C18.5986 5 18.9343 5.33579 18.9343 5.75ZM18.1843 14.8332C18.5986 14.8332 18.9343 14.4974 18.9343 14.0832C18.9343 13.669 18.5986 13.3332 18.1843 13.3332L5.81203 13.3332C5.39782 13.3332 5.06203 13.669 5.06203 14.0832C5.06203 14.4974 5.39782 14.8332 5.81203 14.8332L18.1843 14.8332ZM20.2464 18.9997C20.6606 18.9997 20.9964 18.6639 20.9964 18.2497C20.9964 17.8355 20.6606 17.4997 20.2464 17.4997L3.75 17.4997C3.33579 17.4997 3 17.8355 3 18.2497C3 18.6639 3.33579 18.9997 3.75 18.9997L20.2464 18.9997ZM20.2464 10.6668C20.6606 10.6668 20.9964 10.331 20.9964 9.91677C20.9964 9.50256 20.6606 9.16677 20.2464 9.16677L3.75 9.16677C3.33578 9.16677 3 9.50256 3 9.91677C3 10.331 3.33578 10.6668 3.75 10.6668L20.2464 10.6668Z" fill="black"/>
</svg>
