<svg width="24" height="24" viewBox="0 0 24 24" fill="none" xmlns="http://www.w3.org/2000/svg">
<path fill-rule="evenodd" clip-rule="evenodd" d="M7 5.00269C6.44772 5.00269 6 5.4504 6 6.00269V11.5386V11.5392V17.9978C6 18.5501 6.44772 18.9978 7 18.9978H13.7679C16.1039 18.9978 17.9975 17.1041 17.9975 14.7682C17.9975 12.9997 16.9121 11.4846 15.3711 10.853C15.7672 10.2565 15.998 9.54065 15.998 8.77092C15.998 6.68978 14.3109 5.00269 12.2298 5.00269H7ZM8 12.5392H12.2298C12.2522 12.5392 12.2746 12.539 12.297 12.5386H13.7679C14.9993 12.5386 15.9975 13.5368 15.9975 14.7682C15.9975 15.9996 14.9993 16.9978 13.7679 16.9978H8V12.5392ZM12.2758 10.5386C13.2311 10.5142 13.998 9.7321 13.998 8.77092C13.998 7.79435 13.2063 7.00269 12.2298 7.00269H8V10.5386H12.2758Z" fill="black"/>
</svg>
