<svg width="24" height="24" viewBox="0 0 24 24" fill="none" xmlns="http://www.w3.org/2000/svg">
<path fill-rule="evenodd" clip-rule="evenodd" d="M2.75 5C2.33579 5 2 5.33579 2 5.75C2 6.16421 2.33579 6.5 2.75 6.5H21.25C21.6642 6.5 22 6.16421 22 5.75C22 5.33579 21.6642 5 21.25 5H2.75ZM8.75 9.16677C8.33579 9.16677 8 9.50255 8 9.91677C8 10.331 8.33579 10.6668 8.75 10.6668H21.25C21.6642 10.6668 22 10.331 22 9.91677C22 9.50255 21.6642 9.16677 21.25 9.16677H8.75ZM8 18.2497C8 17.8354 8.33579 17.4997 8.75 17.4997H21.25C21.6642 17.4997 22 17.8354 22 18.2497C22 18.6639 21.6642 18.9997 21.25 18.9997H8.75C8.33579 18.9997 8 18.6639 8 18.2497ZM4.75 13.3333C4.33579 13.3333 4 13.6691 4 14.0833C4 14.4975 4.33579 14.8333 4.75 14.8333H21.25C21.6642 14.8333 22 14.4975 22 14.0833C22 13.6691 21.6642 13.3333 21.25 13.3333H4.75Z" fill="black"/>
</svg>
