<svg width="24" height="24" viewBox="0 0 24 24" fill="none" xmlns="http://www.w3.org/2000/svg">
<path fill-rule="evenodd" clip-rule="evenodd" d="M2.75 5C2.33579 5 2 5.33579 2 5.75C2 6.16421 2.33579 6.5 2.75 6.5H21.25C21.6642 6.5 22 6.16421 22 5.75C22 5.33579 21.6642 5 21.25 5H2.75ZM2.75 9.16677C2.33579 9.16677 2 9.50255 2 9.91677C2 10.331 2.33579 10.6668 2.75 10.6668H14.75C15.1642 10.6668 15.5 10.331 15.5 9.91677C15.5 9.50255 15.1642 9.16677 14.75 9.16677H2.75ZM2 18.2497C2 17.8354 2.33579 17.4997 2.75 17.4997H14.75C15.1642 17.4997 15.5 17.8354 15.5 18.2497C15.5 18.6639 15.1642 18.9997 14.75 18.9997H2.75C2.33579 18.9997 2 18.6639 2 18.2497ZM2.75 13.3333C2.33579 13.3333 2 13.6691 2 14.0833C2 14.4975 2.33579 14.8333 2.75 14.8333H18.75C19.1642 14.8333 19.5 14.4975 19.5 14.0833C19.5 13.6691 19.1642 13.3333 18.75 13.3333H2.75Z" fill="black"/>
</svg>
