<svg width="24" height="24" viewBox="0 0 24 24" fill="none" xmlns="http://www.w3.org/2000/svg">
<path fill-rule="evenodd" clip-rule="evenodd" d="M13.2614 5.00014H18.2459C18.6601 5.00014 18.9959 5.33593 18.9959 5.75014C18.9959 6.16436 18.6601 6.50014 18.2459 6.50014H13.8624L11.6632 17.4961H15.7467C16.1609 17.4961 16.4967 17.8319 16.4967 18.2461C16.4967 18.6603 16.1609 18.9961 15.7467 18.9961H10.76C10.7528 18.9962 10.7456 18.9962 10.7383 18.9961H5.75C5.33579 18.9961 5 18.6603 5 18.2461C5 17.8319 5.33579 17.4961 5.75 17.4961H10.1335L12.3327 6.50014H8.24919C7.83497 6.50014 7.49919 6.16436 7.49919 5.75014C7.49919 5.33593 7.83497 5.00014 8.24919 5.00014H13.2321C13.2418 4.99995 13.2516 4.99995 13.2614 5.00014Z" fill="black"/>
</svg>
