<svg width="24" height="24" viewBox="0 0 24 24" fill="none" xmlns="http://www.w3.org/2000/svg">
<path fill-rule="evenodd" clip-rule="evenodd" d="M8.5 8V11C8.5 12.933 10.067 14.5 12 14.5C13.933 14.5 15.5 12.933 15.5 11V8V5.5V4.75C15.5 4.33579 15.8358 4 16.25 4C16.6642 4 17 4.33579 17 4.75V5.5V11C17 13.7614 14.7614 16 12 16C9.23858 16 7 13.7614 7 11V5.5V4.75C7 4.33579 7.33579 4 7.75 4C8.16421 4 8.5 4.33579 8.5 4.75V5.5V8ZM5.25 19.5009C4.83579 19.5009 4.5 19.8367 4.5 20.2509C4.5 20.6651 4.83579 21.0009 5.25 21.0009H18.75C19.1642 21.0009 19.5 20.6651 19.5 20.2509C19.5 19.8367 19.1642 19.5009 18.75 19.5009H5.25Z" fill="black"/>
</svg>
