<svg width="24" height="24" viewBox="0 0 24 24" fill="none" xmlns="http://www.w3.org/2000/svg">
<path d="M5.92749 5.57672C5.32877 5.10051 4.67052 4.67609 3.94965 4.38789C2.92401 3.97783 2 4.89543 2 6V18.25C2 19.2165 2.7835 20 3.75 20H20.25C21.2165 20 22 19.2165 22 18.25V6C22 4.89543 21.0718 3.97622 20.0574 4.41315C19.4484 4.67543 18.8921 5.04262 18.3868 5.45558C17.3915 6.26897 16.5298 7.31375 15.796 8.22545C15.7245 8.31424 15.6502 8.40057 15.573 8.48426C14.6707 9.46297 13.4604 10 12.2128 10C10.9651 10 9.75488 9.46297 8.85251 8.48425C8.75019 8.37328 8.64594 8.25945 8.53981 8.14358C7.76503 7.2977 6.88974 6.34207 5.92749 5.57672Z" fill="#D7DDED"/>
<path d="M2 4.75V4.75C4.56665 4.75 6.56132 7.10563 8.30111 8.99264V8.99264C9.33855 10.1179 10.7456 10.75 12.2128 10.75C13.6799 10.75 15.087 10.1179 16.1244 8.99264C16.213 8.89652 16.2983 8.79747 16.3803 8.69571C17.8538 6.86492 19.6499 4.75 22 4.75V4.75" stroke="black" stroke-width="1.5" stroke-linecap="round" stroke-linejoin="round"/>
</svg>
