<svg width="24" height="24" viewBox="0 0 24 24" fill="none" xmlns="http://www.w3.org/2000/svg">
<path fill-rule="evenodd" clip-rule="evenodd" d="M6.75001 5C6.03304 5 5.41677 5.43116 5.14634 6.04835C5.34286 6.01654 5.5445 6.00001 5.75 6.00001H18.25C18.4555 6.00001 18.6571 6.01655 18.8537 6.04835C18.5832 5.43116 17.967 5 17.25 5H6.75001ZM6.75001 3.5C4.95517 3.5 3.50015 4.95493 3.5 6.74974C2.58916 7.43389 2 8.52315 2 9.75001V16.75C2 18.8211 3.67893 20.5 5.75 20.5H18.25C20.3211 20.5 22 18.8211 22 16.75V9.75001C22 8.52315 21.4108 7.4339 20.5 6.74974C20.4999 4.95493 19.0448 3.5 17.25 3.5H6.75001ZM5.75 7.50001C4.50736 7.50001 3.5 8.50737 3.5 9.75001V16.75C3.5 17.9927 4.50736 19 5.75 19H18.25C19.4926 19 20.5 17.9927 20.5 16.75V9.75001C20.5 8.50737 19.4926 7.50001 18.25 7.50001H5.75ZM13.5423 13.25L10.75 14.9254V11.5747L13.5423 13.25ZM11.1431 10.0612C10.31 9.56135 9.25 10.1615 9.25 11.1331V15.3669C9.25 16.3385 10.31 16.9387 11.1431 16.4388L14.6713 14.3219C15.4805 13.8364 15.4805 12.6637 14.6713 12.1781L11.1431 10.0612Z" fill="black"/>
</svg>
