<svg width="24" height="24" viewBox="0 0 24 24" fill="none" xmlns="http://www.w3.org/2000/svg">
<path fill-rule="evenodd" clip-rule="evenodd" d="M17.7076 4.23205C17.9937 3.93248 18.4684 3.92152 18.768 4.20757C23.0622 8.30795 23.0937 15.2136 18.7646 19.2957C18.4632 19.5798 17.9885 19.5659 17.7044 19.2645C17.4202 18.9632 17.4341 18.4885 17.7355 18.2043C21.4304 14.7204 21.4139 8.80805 17.7321 5.29243C17.4325 5.00638 17.4216 4.53163 17.7076 4.23205ZM14.8002 7.64992C15.1316 7.40145 15.6017 7.46869 15.8501 7.80011C16.6437 8.85867 16.9998 10.3402 16.9998 11.75C16.9998 13.1598 16.6437 14.6413 15.8501 15.6999C15.6017 16.0313 15.1316 16.0986 14.8002 15.8501C14.4687 15.6016 14.4015 15.1315 14.65 14.8001C15.1893 14.0807 15.4998 12.9512 15.4998 11.75C15.4998 10.5488 15.1893 9.41934 14.65 8.69989C14.4015 8.36848 14.4687 7.89839 14.8002 7.64992ZM10.59 5.693C10.7528 5.55731 11 5.6731 11 5.88506V17.615C11 17.8269 10.7528 17.9427 10.59 17.807L6.23538 14.1782C6.10456 14.0671 5.93511 14 5.75 14H3.75C3.61193 14 3.5 13.8881 3.5 13.75V9.75C3.5 9.61192 3.61193 9.5 3.75 9.5H5.75003C5.92548 9.5 6.09538 9.43848 6.23016 9.32616L10.59 5.693ZM9.62968 18.9594L5.47844 15.5H3.75C2.7835 15.5 2 14.7165 2 13.75V9.75C2 8.7835 2.7835 8 3.75 8H5.47849L9.62968 4.54067L10.1098 5.11684L9.62968 4.54067C10.7695 3.59082 12.5 4.40134 12.5 5.88506V17.615C12.5 19.0987 10.7695 19.9092 9.62968 18.9594Z" fill="black"/>
</svg>
