<svg width="24" height="24" viewBox="0 0 24 24" fill="none" xmlns="http://www.w3.org/2000/svg">
<path fill-rule="evenodd" clip-rule="evenodd" d="M21.7809 3.28033C22.0738 2.98744 22.0738 2.51256 21.7809 2.21967C21.488 1.92678 21.0131 1.92678 20.7203 2.21967L2.21967 20.7203C1.92678 21.0131 1.92678 21.488 2.21967 21.7809C2.51256 22.0738 2.98744 22.0738 3.28033 21.7809L21.7809 3.28033ZM9.62968 18.9594L8.86251 18.3201L9.92754 17.255L10.59 17.807C10.7528 17.9427 11 17.8269 11 17.615V16.1826L12.5 14.6826V17.615C12.5 19.0987 10.7695 19.9092 9.62968 18.9594ZM11 5.88506V9.81861L12.5 8.31861V5.88506C12.5 4.40135 10.7695 3.59082 9.62968 4.54067L5.47849 8H3.75C2.7835 8 2 8.7835 2 9.75V13.75C2 14.7165 2.7835 15.5 3.75 15.5H5.31861L6.45629 14.3623L6.23538 14.1782C6.10456 14.0671 5.93511 14 5.75 14H3.75C3.61193 14 3.5 13.8881 3.5 13.75V9.75C3.5 9.61193 3.61193 9.5 3.75 9.5H5.75003C5.92548 9.5 6.09538 9.43849 6.23016 9.32616L10.59 5.693C10.7528 5.55731 11 5.6731 11 5.88506ZM20.6174 6.56522L19.5114 7.67113C21.2697 11.093 20.6855 15.4227 17.7355 18.2043C17.4341 18.4885 17.4202 18.9632 17.7044 19.2645C17.9885 19.5659 18.4632 19.5798 18.7646 19.2957C22.3428 15.9217 22.9419 10.6187 20.6174 6.56522ZM16.8736 10.309L15.4995 11.6831C15.4997 11.7054 15.4998 11.7277 15.4998 11.75C15.4998 12.9512 15.1893 14.0807 14.65 14.8001C14.4015 15.1315 14.4687 15.6016 14.8002 15.8501C15.1316 16.0986 15.6017 16.0313 15.8501 15.6999C16.6437 14.6413 16.9998 13.1598 16.9998 11.75C16.9998 11.2715 16.9588 10.7847 16.8736 10.309Z" fill="black"/>
</svg>
