<svg width="16" height="16" viewBox="0 0 16 16" fill="none" xmlns="http://www.w3.org/2000/svg">
<path fill-rule="evenodd" clip-rule="evenodd" d="M8 16C12.4183 16 16 12.4183 16 8C16 3.58172 12.4183 0 8 0C3.58172 0 0 3.58172 0 8C0 12.4183 3.58172 16 8 16ZM7 11.75C7 11.1977 7.44772 10.75 8 10.75C8.55229 10.75 9 11.1977 9 11.75C9 12.3023 8.55229 12.75 8 12.75C7.44772 12.75 7 12.3023 7 11.75ZM8.00006 9.25C7.44778 9.25 7.00006 8.80228 7.00006 8.25L7.00006 4.25C7.00006 3.69772 7.44778 3.25 8.00006 3.25C8.55235 3.25 9.00006 3.69772 9.00006 4.25L9.00006 8.25C9.00006 8.80228 8.55235 9.25 8.00006 9.25Z" fill="black"/>
</svg>
