<svg width="24" height="24" viewBox="0 0 24 24" fill="none" xmlns="http://www.w3.org/2000/svg">
<path fill-rule="evenodd" clip-rule="evenodd" d="M10.75 3.5C6.74594 3.5 3.5 6.74593 3.5 10.75C3.5 14.7541 6.74594 18 10.75 18C14.7541 18 18 14.7541 18 10.75C18 6.74593 14.7541 3.5 10.75 3.5ZM2 10.75C2 5.91751 5.91751 2 10.75 2C15.5825 2 19.5 5.91751 19.5 10.75C19.5 12.8962 18.7273 14.862 17.4449 16.3842L17.5303 16.4697L21.7802 20.7194C22.0731 21.0123 22.0731 21.4871 21.7802 21.78C21.4873 22.0729 21.0124 22.0729 20.7195 21.78L16.4697 17.5303L16.3842 17.4449C14.862 18.7273 12.8962 19.5 10.75 19.5C5.91751 19.5 2 15.5825 2 10.75ZM6.75 10.25C6.33579 10.25 6 10.5858 6 11C6 11.4142 6.33579 11.75 6.75 11.75H15.25C15.6642 11.75 16 11.4142 16 11C16 10.5858 15.6642 10.25 15.25 10.25H6.75Z" fill="black"/>
</svg>
